<?xml version="1.0" standalone="no"?>
<!DOCTYPE svg PUBLIC "-//W3C//DTD SVG 20010904//EN"
 "http://www.w3.org/TR/2001/REC-SVG-20010904/DTD/svg10.dtd">
<svg version="1.0" xmlns="http://www.w3.org/2000/svg"
 width="566.000000pt" height="680.000000pt" viewBox="0 0 566.000000 680.000000"
 preserveAspectRatio="xMidYMid meet">

<g transform="translate(0.000000,680.000000) scale(0.100000,-0.100000)"
fill="#000000" stroke="none">
<path d="M2610 5773 c0 -5 5 -15 10 -23 8 -12 10 -11 10 8 0 12 -4 22 -10 22
-5 0 -10 -3 -10 -7z"/>
<path d="M2791 5768 c1 -7 5 -24 9 -38 7 -22 8 -21 9 13 1 20 -3 37 -9 37 -5
0 -10 -6 -9 -12z"/>
<path d="M2881 5768 c0 -7 4 -22 9 -33 7 -17 9 -15 9 13 1 17 -3 32 -9 32 -5
0 -10 -6 -9 -12z"/>
<path d="M2921 5773 c0 -5 4 -17 9 -28 8 -18 9 -17 9 8 1 15 -3 27 -9 27 -5 0
-10 -3 -9 -7z"/>
<path d="M3010 5750 c0 -39 15 -39 16 0 1 17 -3 30 -7 30 -5 0 -9 -13 -9 -30z"/>
<path d="M2580 5745 c0 -14 4 -25 9 -25 4 0 6 11 3 25 -2 14 -6 25 -8 25 -2 0
-4 -11 -4 -25z"/>
<path d="M2841 5754 c0 -11 3 -14 6 -6 3 7 2 16 -1 19 -3 4 -6 -2 -5 -13z"/>
<path d="M2970 5760 c0 -17 17 -47 23 -40 2 3 -2 16 -10 30 -7 14 -13 18 -13
10z"/>
<path d="M3061 5754 c0 -11 3 -14 6 -6 3 7 2 16 -1 19 -3 4 -6 -2 -5 -13z"/>
<path d="M3100 5761 c0 -6 5 -13 10 -16 6 -3 10 1 10 9 0 9 -4 16 -10 16 -5 0
-10 -4 -10 -9z"/>
<path d="M2542 5740 c0 -14 2 -19 5 -12 2 6 2 18 0 25 -3 6 -5 1 -5 -13z"/>
<path d="M3150 5750 c0 -8 5 -22 10 -30 9 -13 10 -13 10 0 0 8 -5 22 -10 30
-9 13 -10 13 -10 0z"/>
<path d="M3194 5749 c-3 -6 -1 -16 5 -22 8 -8 11 -5 11 11 0 24 -5 28 -16 11z"/>
<path d="M2667 5743 c-4 -3 -7 -11 -7 -17 0 -6 5 -5 12 2 6 6 9 14 7 17 -3 3
-9 2 -12 -2z"/>
<path d="M3244 5730 c3 -14 6 -33 6 -42 0 -10 5 -18 11 -18 13 0 2 60 -13 75
-7 7 -9 2 -4 -15z"/>
<path d="M2715 5720 c3 -5 8 -10 11 -10 2 0 4 5 4 10 0 6 -5 10 -11 10 -5 0
-7 -4 -4 -10z"/>
<path d="M3370 5720 c0 -5 5 -10 11 -10 5 0 7 5 4 10 -3 6 -8 10 -11 10 -2 0
-4 -4 -4 -10z"/>
<path d="M2292 5700 c0 -14 2 -19 5 -12 2 6 2 18 0 25 -3 6 -5 1 -5 -13z"/>
<path d="M3210 5693 c0 -12 5 -25 10 -28 13 -8 13 15 0 35 -8 12 -10 11 -10
-7z"/>
<path d="M3297 5694 c-6 -10 9 -42 16 -34 3 3 1 14 -3 24 -3 11 -9 15 -13 10z"/>
<path d="M3345 5691 c-3 -5 -1 -12 5 -16 5 -3 10 1 10 9 0 18 -6 21 -15 7z"/>
<path d="M3430 5684 c0 -8 5 -12 10 -9 6 3 10 10 10 16 0 5 -4 9 -10 9 -5 0
-10 -7 -10 -16z"/>
<path d="M3475 5691 c-3 -5 -1 -12 5 -16 5 -3 10 1 10 9 0 18 -6 21 -15 7z"/>
<path d="M3532 5670 c0 -14 2 -19 5 -12 2 6 2 18 0 25 -3 6 -5 1 -5 -13z"/>
<path d="M3390 5661 c0 -5 5 -13 10 -16 6 -3 10 -2 10 4 0 5 -4 13 -10 16 -5
3 -10 2 -10 -4z"/>
<path d="M3574 5655 c4 -11 10 -32 13 -47 3 -16 10 -28 14 -28 12 0 0 50 -19
75 l-14 20 6 -20z"/>
<path d="M2085 5640 c3 -5 8 -10 11 -10 2 0 4 5 4 10 0 6 -5 10 -11 10 -5 0
-7 -4 -4 -10z"/>
<path d="M3495 5630 c3 -5 8 -10 11 -10 2 0 4 5 4 10 0 6 -5 10 -11 10 -5 0
-7 -4 -4 -10z"/>
<path d="M3630 5613 c0 -18 5 -33 10 -33 13 0 13 30 0 50 -7 11 -10 7 -10 -17z"/>
<path d="M3670 5635 c0 -21 24 -84 30 -80 4 3 2 20 -4 40 -12 34 -26 56 -26
40z"/>
<path d="M3540 5610 c0 -5 5 -10 10 -10 6 0 10 5 10 10 0 6 -4 10 -10 10 -5 0
-10 -4 -10 -10z"/>
<path d="M3724 5604 c3 -9 6 -18 6 -20 0 -3 4 -3 10 1 11 7 2 35 -12 35 -6 0
-7 -7 -4 -16z"/>
<path d="M2994 5603 c-21 -4 -28 -18 -120 -234 -13 -31 -24 -59 -24 -63 0 -3
-11 -29 -25 -58 -14 -28 -25 -52 -25 -53 0 -1 12 -2 28 -2 25 0 28 4 29 36 1
20 11 54 22 76 12 21 21 46 21 54 0 12 3 12 12 3 10 -10 10 -17 0 -33 -8 -12
-11 -24 -8 -27 3 -3 6 -2 6 3 0 4 9 0 19 -9 18 -17 19 -16 16 16 -8 73 -10 83
-20 90 -6 4 -2 18 11 34 25 34 51 46 36 18 -5 -11 -7 -24 -5 -31 7 -18 33 -3
33 18 0 11 7 22 15 25 8 3 14 17 13 30 -3 30 -14 31 -24 2 l-7 -23 -10 23 c-9
19 -8 26 6 34 10 5 15 13 12 19 -4 5 1 9 11 9 9 0 23 8 30 18 12 15 13 15 14
1 0 -9 7 -30 15 -45 22 -43 19 -64 -6 -34 l-21 25 7 -28 c3 -16 2 -34 -4 -40
-12 -15 2 -95 24 -137 18 -36 18 -36 -69 -44 -33 -3 -60 -7 -61 -9 -1 -1 5
-18 14 -37 l15 -35 4 28 c2 16 9 27 19 27 11 0 14 -6 9 -25 -5 -18 -2 -25 8
-25 9 0 16 12 18 28 2 16 9 27 18 27 8 0 25 4 38 8 19 7 22 14 17 45 -3 20 -2
31 1 24 10 -22 24 -2 17 26 -6 24 -5 26 10 13 10 -7 17 -26 17 -41 0 -16 11
-52 25 -82 19 -40 25 -47 25 -28 0 14 -7 38 -15 54 -8 15 -15 36 -15 45 0 9
-8 32 -18 51 -11 19 -17 41 -15 48 3 7 1 18 -5 25 -5 7 -15 40 -23 75 -7 35
-18 67 -24 71 -14 12 -65 19 -91 14z m-19 -113 c3 -5 1 -10 -4 -10 -6 0 -11 5
-11 10 0 6 2 10 4 10 3 0 8 -4 11 -10z m133 -45 c-2 -15 -6 -21 -11 -16 -6 6
-7 17 -4 25 9 24 17 19 15 -9z m-5 -65 c-22 -26 -23 -26 -23 10 0 27 2 30 20
20 18 -10 19 -11 3 -30z"/>
<path d="M2533 5589 c-28 -8 -33 -14 -33 -39 0 -30 14 -48 25 -30 3 5 9 10 13
10 10 0 48 -72 44 -83 -1 -5 4 -33 13 -62 18 -63 18 -65 5 -65 -5 0 -10 8 -10
18 0 14 -2 15 -10 2 -6 -9 -6 -16 0 -18 11 -4 35 -80 31 -99 -1 -7 5 -13 14
-13 19 0 19 10 -1 60 -13 31 -14 43 -4 54 9 12 6 38 -15 120 -14 61 -23 116
-19 131 7 28 0 29 -53 14z"/>
<path d="M3777 5569 c18 -35 27 -33 17 5 -3 14 -12 26 -19 26 -11 0 -10 -6 2
-31z"/>
<path d="M3820 5573 c0 -5 5 -15 10 -23 8 -12 10 -11 10 8 0 12 -4 22 -10 22
-5 0 -10 -3 -10 -7z"/>
<path d="M1852 5550 c0 -14 2 -19 5 -12 2 6 2 18 0 25 -3 6 -5 1 -5 -13z"/>
<path d="M3386 5526 c-3 -13 -8 -31 -12 -39 -4 -10 4 -16 25 -19 17 -2 32 -1
33 3 5 13 58 22 58 10 0 -6 -12 -11 -26 -11 -23 0 -25 -2 -13 -16 7 -8 22 -14
34 -12 20 4 20 2 13 -41 -6 -39 -44 -183 -60 -231 -21 -62 -26 -89 -21 -114 4
-20 3 -27 -6 -22 -7 4 -15 -2 -20 -16 -5 -14 -5 -25 1 -29 15 -10 48 28 47 53
-1 31 16 127 25 135 3 3 6 1 6 -5 0 -7 4 -12 9 -12 13 0 10 43 -4 53 -6 5 -4
12 8 21 10 8 16 24 15 37 -2 15 2 23 10 22 6 -2 12 6 12 16 0 30 17 34 24 6 9
-35 -3 -74 -25 -86 -21 -11 -25 -29 -6 -29 23 0 41 19 42 42 1 13 7 33 14 46
7 12 9 33 6 45 -4 12 -9 30 -12 41 -3 12 -1 16 6 12 6 -4 11 -19 12 -34 l1
-27 14 32 c13 29 16 32 40 23 36 -14 54 -12 54 5 0 8 -4 15 -10 15 -5 0 -10 5
-10 10 0 6 14 10 32 10 30 0 30 -1 14 -19 -21 -23 -11 -53 18 -49 17 2 21 10
21 43 0 29 -4 40 -15 40 -8 0 -18 4 -22 9 -7 11 -102 38 -135 40 -13 1 -23 4
-23 9 0 4 -8 7 -19 7 -10 0 -24 7 -31 15 -7 9 -21 13 -30 10 -9 -3 -23 1 -30
10 -20 24 -57 19 -64 -9z m54 -36 c-20 -13 -53 -13 -45 0 3 6 18 10 33 10 21
0 24 -2 12 -10z m123 -71 c-7 -27 -23 -24 -23 6 0 17 4 23 14 19 8 -3 12 -13
9 -25z m87 -14 c0 -8 -4 -15 -10 -15 -5 0 -7 7 -4 15 4 8 8 15 10 15 2 0 4 -7
4 -15z"/>
<path d="M3886 5510 c8 -57 24 -76 24 -29 0 18 -7 43 -16 54 -14 19 -14 17 -8
-25z"/>
<path d="M2223 5530 c-25 -10 -30 -39 -11 -58 16 -16 29 -15 27 1 -3 23 1 37
11 37 6 0 10 -13 10 -29 0 -16 6 -44 13 -62 8 -19 12 -49 10 -66 -2 -25 1 -33
13 -33 14 0 15 8 10 48 -6 42 -23 125 -32 160 -4 14 -19 15 -51 2z"/>
<path d="M3801 5514 c0 -11 3 -14 6 -6 3 7 2 16 -1 19 -3 4 -6 -2 -5 -13z"/>
<path d="M3840 5520 c0 -8 5 -22 10 -30 9 -13 10 -13 10 0 0 8 -5 22 -10 30
-9 13 -10 13 -10 0z"/>
<path d="M3933 5505 c8 -46 29 -92 34 -77 3 8 0 19 -6 25 -6 6 -11 20 -11 32
0 11 -5 27 -11 35 -8 12 -10 8 -6 -15z"/>
<path d="M1781 5484 c0 -11 3 -14 6 -6 3 7 2 16 -1 19 -3 4 -6 -2 -5 -13z"/>
<path d="M2520 5470 c0 -16 5 -30 11 -30 7 0 9 -10 5 -27 -9 -37 -9 -44 6
-138 14 -87 7 -135 -23 -153 -10 -6 -43 -12 -74 -13 -46 -2 -60 2 -80 21 -14
13 -25 31 -26 39 0 11 -2 12 -6 3 -9 -23 17 -67 47 -80 20 -9 44 -11 77 -6 26
4 53 8 58 8 6 1 20 11 31 22 25 25 41 122 25 152 -11 21 -14 61 -8 140 2 38 0
55 -10 59 -7 3 -13 11 -13 19 0 8 -4 14 -10 14 -5 0 -10 -13 -10 -30z"/>
<path d="M3980 5485 c0 -25 33 -82 38 -67 2 8 -1 19 -7 25 -6 6 -11 21 -11 34
0 13 -4 23 -10 23 -5 0 -10 -7 -10 -15z"/>
<path d="M4046 5441 c-4 -7 -5 -15 -2 -18 9 -9 19 4 14 18 -4 11 -6 11 -12 0z"/>
<path d="M4090 5433 c0 -12 5 -25 10 -28 13 -8 13 15 0 35 -8 12 -10 11 -10
-7z"/>
<path d="M2206 5408 c17 -107 28 -154 39 -163 6 -5 15 -37 19 -69 4 -33 9 -62
12 -65 10 -10 24 24 18 44 -3 11 -8 35 -11 53 -3 17 -9 32 -13 32 -4 0 -10 19
-14 43 -15 100 -17 113 -28 135 -17 32 -28 27 -22 -10z"/>
<path d="M2944 5404 c3 -9 6 -18 6 -20 0 -2 7 -4 15 -4 19 0 19 7 1 26 -19 19
-30 18 -22 -2z"/>
<path d="M4144 5382 c8 -15 17 -44 21 -65 4 -20 11 -34 16 -31 5 3 5 13 -1 24
-5 10 -10 32 -10 47 0 16 -5 34 -12 41 -21 21 -29 13 -14 -16z"/>
<path d="M4107 5373 c-3 -4 1 -19 9 -33 12 -22 13 -23 13 -5 1 24 -14 50 -22
38z"/>
<path d="M4200 5359 c0 -16 36 -118 45 -127 9 -9 5 11 -13 70 -18 58 -32 83
-32 57z"/>
<path d="M1800 5353 c-70 -11 -123 -57 -90 -78 13 -8 110 6 110 16 0 12 -47
11 -71 -1 -25 -14 -25 1 1 23 12 10 32 15 50 13 17 -2 33 0 36 5 5 9 67 4 84
-6 6 -3 10 -13 10 -21 0 -8 5 -14 10 -14 20 0 9 38 -15 54 -23 15 -68 18 -125
9z"/>
<path d="M4261 5308 c-1 -15 4 -30 9 -33 6 -3 10 -22 10 -41 0 -19 4 -34 10
-34 11 0 3 47 -16 100 -12 33 -13 33 -13 8z"/>
<path d="M1974 5288 c2 -18 4 -36 5 -40 2 -17 27 -7 28 12 1 11 -2 20 -8 20
-5 0 -9 9 -9 20 0 11 -4 20 -10 20 -5 0 -8 -15 -6 -32z"/>
<path d="M2290 5295 c0 -8 5 -15 10 -15 6 0 10 7 10 15 0 8 -4 15 -10 15 -5 0
-10 -7 -10 -15z"/>
<path d="M3948 5283 c-8 -10 -18 -26 -21 -36 -4 -9 -24 -41 -45 -70 -22 -28
-50 -72 -63 -97 -13 -25 -30 -49 -36 -53 -7 -4 -13 -13 -13 -19 0 -6 -11 -26
-25 -44 -25 -32 -25 -35 -10 -64 9 -17 13 -40 10 -51 -5 -14 0 -26 16 -40 25
-21 35 -24 44 -9 3 6 0 10 -8 10 -13 0 -27 31 -31 65 -1 6 -5 20 -9 33 -6 15
-4 27 7 38 9 8 16 22 16 29 0 8 9 19 20 25 11 6 18 15 16 19 -6 9 30 51 43 51
5 0 7 10 4 21 -4 15 0 27 12 35 11 8 16 14 12 14 -4 0 -3 9 3 21 9 16 14 18
26 8 11 -9 14 -7 14 15 0 16 4 25 10 21 6 -3 10 4 10 17 0 48 39 63 60 23 11
-21 56 -47 85 -49 6 -1 16 -9 23 -18 7 -10 19 -18 27 -18 8 0 17 -5 21 -12 5
-7 2 -9 -9 -5 -9 3 -18 1 -21 -6 -3 -8 -9 -7 -19 6 -8 9 -23 17 -34 17 -12 0
-23 8 -26 20 -7 26 -27 26 -27 0 0 -12 13 -25 35 -36 19 -9 35 -20 35 -25 0
-5 9 -9 20 -9 10 0 24 -9 30 -20 8 -14 17 -19 29 -15 13 4 20 -1 24 -15 3 -11
10 -20 16 -20 12 0 15 23 4 34 -4 4 -8 22 -9 39 -1 18 -9 36 -19 42 -10 5 -29
20 -42 32 -14 12 -34 25 -44 28 -11 4 -19 11 -19 16 0 5 -6 9 -14 9 -8 0 -28
14 -46 30 -37 34 -60 38 -82 13z m242 -167 c0 -8 -4 -17 -9 -21 -12 -7 -24 12
-16 25 9 15 25 12 25 -4z"/>
<path d="M4310 5286 c0 -8 5 -18 10 -21 6 -3 10 1 10 9 0 8 -4 18 -10 21 -5 3
-10 -1 -10 -9z"/>
<path d="M1665 5279 c-4 -6 0 -18 9 -27 15 -15 16 -15 16 5 0 25 -15 38 -25
22z"/>
<path d="M1845 5270 c3 -5 10 -10 16 -10 5 0 9 5 9 10 0 6 -7 10 -16 10 -8 0
-12 -4 -9 -10z"/>
<path d="M1888 5274 c-4 -3 11 -22 31 -42 43 -42 81 -133 84 -199 1 -24 3 -43
4 -43 1 0 7 9 13 19 13 26 -7 125 -36 171 -25 40 -76 99 -85 100 -3 0 -8 -3
-11 -6z"/>
<path d="M2298 5264 c-3 -5 1 -20 8 -34 12 -22 14 -22 14 -5 0 24 -16 51 -22
39z"/>
<path d="M1628 5229 c-10 -17 -18 -38 -17 -47 0 -12 4 -9 12 8 6 14 15 28 20
31 5 4 7 14 5 23 -2 11 -8 8 -20 -15z"/>
<path d="M2030 5243 c0 -4 5 -15 10 -23 8 -13 10 -13 10 2 0 9 -4 20 -10 23
-5 3 -10 3 -10 -2z"/>
<path d="M2870 5235 c0 -8 4 -15 10 -15 5 0 7 7 4 15 -4 8 -8 15 -10 15 -2 0
-4 -7 -4 -15z"/>
<path d="M2920 5240 c0 -5 5 -10 11 -10 5 0 7 5 4 10 -3 6 -8 10 -11 10 -2 0
-4 -4 -4 -10z"/>
<path d="M3977 5244 c-4 -4 -7 -15 -7 -24 0 -10 -7 -23 -15 -30 -8 -7 -12 -16
-9 -21 3 -5 1 -9 -5 -9 -16 0 -23 -38 -10 -61 9 -18 8 -24 -5 -31 -22 -12 -20
-25 4 -31 11 -3 20 -12 20 -21 0 -18 15 -21 25 -6 9 15 25 12 25 -5 0 -8 18
-23 40 -32 41 -18 46 -27 31 -51 -6 -10 -12 -7 -25 12 -9 14 -23 26 -31 26 -8
0 -18 7 -23 15 -5 10 -15 13 -25 9 -26 -10 -21 -18 23 -37 22 -9 40 -24 40
-32 0 -8 9 -15 19 -15 11 0 23 -4 26 -10 12 -20 26 -9 23 18 -2 22 1 26 16 24
25 -4 16 22 -10 27 -10 2 -23 9 -29 15 -5 7 -34 30 -63 50 -55 40 -73 76 -53
107 6 10 11 26 11 34 0 9 8 19 18 23 16 6 17 11 7 35 -6 15 -14 24 -18 21z"/>
<path d="M3050 5220 c0 -11 5 -20 10 -20 6 0 10 9 10 20 0 11 -4 20 -10 20 -5
0 -10 -9 -10 -20z"/>
<path d="M3090 5237 c0 -1 9 -20 20 -42 11 -22 20 -50 20 -63 0 -39 18 -62 48
-62 20 0 28 5 28 18 0 14 -6 17 -23 14 -16 -3 -23 0 -23 12 0 9 -4 24 -9 34
-5 9 -17 34 -27 55 -10 20 -22 37 -26 37 -5 0 -8 -1 -8 -3z"/>
<path d="M4370 5231 c0 -6 5 -13 10 -16 6 -3 10 1 10 9 0 9 -4 16 -10 16 -5 0
-10 -4 -10 -9z"/>
<path d="M1675 5220 c-3 -5 1 -10 9 -10 9 0 16 5 16 10 0 6 -4 10 -9 10 -6 0
-13 -4 -16 -10z"/>
<path d="M4340 5186 c0 -9 5 -16 10 -16 6 0 10 4 10 9 0 6 -4 13 -10 16 -5 3
-10 -1 -10 -9z"/>
<path d="M1673 5150 c0 -25 2 -35 4 -22 2 12 2 32 0 45 -2 12 -4 2 -4 -23z"/>
<path d="M3200 5172 c0 -12 4 -30 9 -40 5 -9 12 -26 16 -36 3 -10 8 -16 12
-12 7 7 -15 85 -29 101 -4 5 -8 0 -8 -13z"/>
<path d="M3510 5166 c0 -15 -7 -26 -20 -29 -16 -4 -18 -10 -12 -28 13 -35 29
-34 35 3 3 18 8 43 12 56 5 14 3 22 -4 22 -6 0 -11 -11 -11 -24z"/>
<path d="M4390 5176 c0 -9 5 -16 10 -16 6 0 10 4 10 9 0 6 -4 13 -10 16 -5 3
-10 -1 -10 -9z"/>
<path d="M2855 5170 c-3 -5 -4 -14 0 -19 3 -5 -4 -16 -15 -24 -13 -9 -18 -20
-14 -31 8 -22 24 -20 24 3 0 11 4 21 9 23 14 5 25 58 13 58 -6 0 -14 -4 -17
-10z"/>
<path d="M4441 5164 c0 -11 3 -14 6 -6 3 7 2 16 -1 19 -3 4 -6 -2 -5 -13z"/>
<path d="M2068 5140 c2 -16 9 -30 14 -30 5 0 6 10 3 23 -11 35 -22 40 -17 7z"/>
<path d="M2775 5140 c-19 -37 -19 -51 0 -44 8 4 15 12 15 20 0 8 9 19 20 26
25 16 26 28 0 28 -11 0 -26 -12 -35 -30z"/>
<path d="M1597 5153 c-13 -12 -7 -102 6 -110 8 -4 16 -24 20 -44 7 -47 38
-111 57 -117 13 -4 13 -3 2 10 -7 9 -21 46 -32 82 -10 36 -25 73 -34 81 -8 9
-13 21 -11 28 16 55 12 91 -8 70z"/>
<path d="M4350 5150 c0 -5 5 -10 11 -10 5 0 7 5 4 10 -3 6 -8 10 -11 10 -2 0
-4 -4 -4 -10z"/>
<path d="M2605 5137 c-4 -10 -5 -21 -1 -24 10 -10 18 4 13 24 -4 17 -4 17 -12
0z"/>
<path d="M4411 5108 c-1 -16 4 -28 9 -28 12 0 12 8 0 35 -8 18 -9 17 -9 -7z"/>
<path d="M4230 5106 c0 -7 7 -19 15 -26 13 -11 15 -8 15 14 0 16 -5 26 -15 26
-8 0 -15 -6 -15 -14z"/>
<path d="M4501 5104 c0 -11 3 -14 6 -6 3 7 2 16 -1 19 -3 4 -6 -2 -5 -13z"/>
<path d="M3887 5104 c-4 -4 -7 -14 -7 -23 0 -11 3 -12 11 -4 6 6 10 16 7 23
-2 6 -7 8 -11 4z"/>
<path d="M2301 5091 c-11 -7 -9 -13 8 -30 23 -23 40 -29 23 -8 -5 6 -11 20
-13 29 -3 12 -8 15 -18 9z"/>
<path d="M1657 5053 c8 -54 21 -63 19 -12 0 23 -6 44 -13 46 -9 3 -10 -7 -6
-34z"/>
<path d="M2500 5065 c-13 -16 -8 -18 28 -9 12 4 22 10 22 15 0 15 -37 10 -50
-6z"/>
<path d="M3466 5055 c-7 -29 0 -48 15 -40 12 8 12 65 0 65 -5 0 -12 -11 -15
-25z"/>
<path d="M4476 5062 c-4 -6 -2 -21 4 -33 15 -28 21 -20 12 16 -5 18 -11 25
-16 17z"/>
<path d="M2360 5045 c0 -10 7 -15 18 -13 21 4 19 22 -2 26 -10 2 -16 -3 -16
-13z"/>
<path d="M4571 5044 c0 -11 3 -14 6 -6 3 7 2 16 -1 19 -3 4 -6 -2 -5 -13z"/>
<path d="M4536 5000 c7 -53 24 -78 24 -34 -1 16 -7 40 -16 54 -14 24 -14 23
-8 -20z"/>
<path d="M3916 5011 c-3 -5 1 -14 9 -21 12 -10 15 -10 15 3 0 19 -16 31 -24
18z"/>
<path d="M3837 5003 c-4 -3 -7 -20 -7 -37 0 -28 1 -29 15 -10 23 31 16 72 -8
47z"/>
<path d="M1700 4981 c0 -12 3 -21 8 -21 4 0 18 -16 31 -35 25 -38 57 -53 74
-36 11 11 9 12 -25 15 -18 1 -33 17 -52 53 -20 40 -36 50 -36 24z"/>
<path d="M1900 4981 c0 -20 27 -48 37 -37 3 3 1 6 -6 6 -9 0 -11 8 -7 25 5 18
2 25 -9 25 -8 0 -15 -8 -15 -19z"/>
<path d="M1946 4986 c3 -9 11 -16 16 -16 13 0 5 23 -10 28 -7 2 -10 -2 -6 -12z"/>
<path d="M2080 4991 c0 -6 5 -13 10 -16 6 -4 7 -12 4 -18 -5 -8 -3 -8 7 1 7 6
24 12 37 12 21 0 24 -4 20 -25 -3 -14 -2 -25 2 -25 10 0 20 26 20 52 0 16 -6
19 -34 17 -19 -2 -38 0 -42 4 -10 10 -24 9 -24 -2z"/>
<path d="M4586 4992 c-2 -4 -1 -14 5 -22 7 -12 9 -10 9 8 0 23 -5 28 -14 14z"/>
<path d="M3445 4980 c-3 -5 1 -10 10 -10 9 0 13 5 10 10 -3 6 -8 10 -10 10 -2
0 -7 -4 -10 -10z"/>
<path d="M1257 4969 c-15 -9 -47 -59 -47 -74 0 -3 7 -5 16 -5 10 0 14 5 10 15
-4 11 6 22 29 36 19 12 32 25 29 30 -7 11 -15 11 -37 -2z"/>
<path d="M4650 4924 c0 -14 4 -23 9 -20 5 3 7 15 4 26 -7 28 -13 25 -13 -6z"/>
<path d="M3793 4923 c-21 -8 -15 -22 7 -16 11 3 20 9 20 14 0 10 -8 10 -27 2z"/>
<path d="M4610 4914 c0 -10 5 -26 10 -34 8 -11 9 -7 4 15 -8 37 -14 45 -14 19z"/>
<path d="M1260 4904 c0 -8 5 -12 10 -9 6 3 10 10 10 16 0 5 -4 9 -10 9 -5 0
-10 -7 -10 -16z"/>
<path d="M1925 4910 c3 -5 8 -10 11 -10 2 0 4 5 4 10 0 6 -5 10 -11 10 -5 0
-7 -4 -4 -10z"/>
<path d="M4118 4913 c7 -3 16 -2 19 1 4 3 -2 6 -13 5 -11 0 -14 -3 -6 -6z"/>
<path d="M1978 4886 c-20 -6 -40 -14 -44 -19 -14 -14 55 0 78 16 27 19 18 20
-34 3z"/>
<path d="M3695 4887 c-5 -12 -2 -24 9 -35 13 -13 16 -14 15 -2 0 8 -4 24 -9
35 -7 19 -8 19 -15 2z"/>
<path d="M3795 4888 c-9 -22 1 -52 15 -43 5 3 18 -3 30 -15 21 -21 40 -26 40
-11 0 13 -41 41 -51 36 -4 -3 -12 7 -17 22 -8 24 -11 25 -17 11z"/>
<path d="M1159 4858 c-25 -36 -58 -68 -69 -68 -12 0 -39 -62 -33 -77 8 -21 26
-15 20 7 -6 22 16 50 38 50 8 0 19 -8 25 -17 9 -15 10 -12 5 14 -6 32 -3 39
36 83 9 10 13 23 9 30 -5 8 -15 1 -31 -22z"/>
<path d="M1845 4880 c3 -5 8 -10 11 -10 2 0 4 5 4 10 0 6 -5 10 -11 10 -5 0
-7 -4 -4 -10z"/>
<path d="M1875 4880 c3 -5 8 -10 11 -10 2 0 4 5 4 10 0 6 -5 10 -11 10 -5 0
-7 -4 -4 -10z"/>
<path d="M4710 4889 c0 -3 9 -29 20 -59 10 -30 19 -48 19 -40 1 18 -23 87 -32
96 -4 4 -7 5 -7 3z"/>
<path d="M1709 4858 c5 -13 17 -24 27 -26 11 -2 15 0 8 5 -6 4 -13 16 -17 26
-3 9 -11 17 -16 17 -7 0 -7 -9 -2 -22z"/>
<path d="M4667 4860 c7 -25 23 -37 23 -17 0 8 -6 20 -14 26 -12 10 -13 8 -9
-9z"/>
<path d="M1226 4855 c4 -8 10 -12 15 -9 14 8 10 24 -6 24 -9 0 -12 -6 -9 -15z"/>
<path d="M1410 4830 c0 -5 7 -10 15 -10 8 0 15 5 15 10 0 6 -7 10 -15 10 -8 0
-15 -4 -15 -10z"/>
<path d="M1765 4830 c-8 -13 35 -13 55 0 11 7 7 10 -17 10 -17 0 -35 -4 -38
-10z"/>
<path d="M1175 4800 c-3 -5 -2 -10 4 -10 5 0 13 5 16 10 3 6 2 10 -4 10 -5 0
-13 -4 -16 -10z"/>
<path d="M1448 4803 c-10 -2 -18 -9 -18 -14 0 -14 16 -11 30 6 7 8 11 14 9 14
-2 -1 -12 -3 -21 -6z"/>
<path d="M3896 4795 c-3 -9 0 -18 8 -21 8 -3 12 -14 9 -27 -5 -17 -3 -19 6
-11 15 14 11 66 -5 71 -6 2 -14 -3 -18 -12z"/>
<path d="M4690 4796 c0 -21 11 -46 20 -46 10 0 0 49 -11 56 -5 3 -9 -1 -9 -10z"/>
<path d="M1380 4790 c0 -5 5 -10 10 -10 6 0 10 5 10 10 0 6 -4 10 -10 10 -5 0
-10 -4 -10 -10z"/>
<path d="M4780 4791 c0 -5 5 -13 10 -16 6 -3 10 -2 10 4 0 5 -4 13 -10 16 -5
3 -10 2 -10 -4z"/>
<path d="M3822 4768 c7 -19 38 -22 38 -4 0 10 -9 16 -21 16 -12 0 -19 -5 -17
-12z"/>
<path d="M1336 4745 c-21 -32 -18 -75 6 -75 16 0 16 3 6 20 -10 16 -9 25 5 50
22 36 6 41 -17 5z"/>
<path d="M1405 4760 c-4 -6 -3 -16 3 -22 6 -6 12 -6 17 2 4 6 3 16 -3 22 -6 6
-12 6 -17 -2z"/>
<path d="M3940 4761 c0 -5 7 -14 15 -21 8 -7 12 -16 9 -21 -3 -5 2 -16 10 -25
9 -8 16 -24 16 -35 0 -12 4 -17 11 -14 6 4 8 9 5 12 -2 3 -1 16 4 29 7 18 6
22 -4 18 -17 -6 -31 12 -17 21 6 3 3 14 -7 25 -17 20 -42 27 -42 11z"/>
<path d="M3876 4753 c-11 -11 -6 -23 9 -23 8 0 15 4 15 9 0 13 -16 22 -24 14z"/>
<path d="M1370 4715 c0 -14 4 -25 10 -25 5 0 9 11 8 25 -1 14 -6 25 -10 25 -4
0 -8 -11 -8 -25z"/>
<path d="M4761 4724 c0 -11 3 -14 6 -6 3 7 2 16 -1 19 -3 4 -6 -2 -5 -13z"/>
<path d="M3926 4711 c-3 -5 1 -11 9 -14 9 -4 12 -1 8 9 -6 16 -10 17 -17 5z"/>
<path d="M1150 4695 c7 -9 15 -13 17 -11 7 7 -7 26 -19 26 -6 0 -6 -6 2 -15z"/>
<path d="M1100 4691 c0 -12 31 -43 37 -37 6 6 -20 46 -29 46 -5 0 -8 -4 -8 -9z"/>
<path d="M1273 4674 c-10 -22 -9 -25 5 -22 9 2 18 13 20 26 5 30 -10 28 -25
-4z"/>
<path d="M4822 4680 c0 -14 2 -19 5 -12 2 6 2 18 0 25 -3 6 -5 1 -5 -13z"/>
<path d="M1192 4678 c6 -18 28 -21 28 -4 0 9 -7 16 -16 16 -9 0 -14 -5 -12
-12z"/>
<path d="M1595 4680 c-8 -13 5 -13 25 0 13 8 13 10 -2 10 -9 0 -20 -4 -23 -10z"/>
<path d="M4781 4660 c0 -8 6 -26 14 -40 8 -14 14 -19 14 -10 0 8 -6 26 -14 40
-8 14 -14 19 -14 10z"/>
<path d="M1566 4645 c-3 -10 -3 -22 3 -28 12 -12 20 4 11 27 -6 19 -7 19 -14
1z"/>
<path d="M1155 4640 c-5 -8 -1 -16 9 -22 9 -5 16 -15 16 -22 0 -8 6 -19 14
-25 12 -10 14 -7 11 14 -3 34 -39 73 -50 55z"/>
<path d="M4493 4608 c-24 -5 -43 -13 -43 -18 0 -4 -15 -17 -32 -29 -18 -11
-42 -26 -53 -33 -37 -24 -58 -62 -86 -155 -7 -22 -6 -46 1 -75 15 -56 33 -98
42 -98 5 0 8 -6 8 -13 0 -16 55 -59 64 -50 10 11 7 28 -10 49 -8 10 -13 13 -9
7 4 -9 -1 -13 -14 -13 -12 0 -21 1 -21 3 0 2 -11 41 -25 86 -23 77 -23 84 -9
107 9 13 14 33 11 44 -3 11 -1 20 4 20 5 0 14 11 19 25 5 14 24 34 41 43 18 9
41 26 52 36 17 16 23 17 41 6 17 -10 19 -10 9 1 -16 16 -17 39 -2 39 7 0 18
-8 26 -17 8 -10 12 -12 8 -5 -11 22 6 35 20 15 13 -17 14 -17 20 -1 7 17 -1
39 -13 37 -4 -1 -26 -5 -49 -11z"/>
<path d="M4892 4600 c0 -14 2 -19 5 -12 2 6 2 18 0 25 -3 6 -5 1 -5 -13z"/>
<path d="M1593 4595 c0 -8 4 -12 9 -9 5 3 6 10 3 15 -9 13 -12 11 -12 -6z"/>
<path d="M4572 4598 c7 -19 53 -21 68 -4 11 14 7 16 -30 16 -29 0 -40 -4 -38
-12z"/>
<path d="M4850 4596 c0 -27 22 -86 33 -86 5 0 6 8 2 18 -4 9 -14 33 -21 52 -8
21 -13 27 -14 16z"/>
<path d="M1491 4559 c-13 -17 -21 -33 -18 -36 7 -6 57 45 57 58 0 17 -15 8
-39 -22z"/>
<path d="M4644 4575 c-10 -8 -27 -15 -36 -15 -10 0 -18 -4 -18 -9 0 -14 29
-41 43 -41 8 0 7 3 -2 9 -17 11 -4 34 15 27 8 -3 14 1 14 9 0 8 9 15 21 15 11
0 17 5 14 10 -9 14 -28 12 -51 -5z"/>
<path d="M1230 4566 c0 -9 5 -16 10 -16 6 0 10 4 10 9 0 6 -4 13 -10 16 -5 3
-10 -1 -10 -9z"/>
<path d="M1331 4545 c2 -10 11 -21 19 -25 8 -4 25 -12 38 -19 33 -17 27 -6
-19 30 -32 25 -40 28 -38 14z"/>
<path d="M4560 4545 c0 -8 5 -15 10 -15 6 0 10 7 10 15 0 8 -4 15 -10 15 -5 0
-10 -7 -10 -15z"/>
<path d="M4689 4548 c-1 -7 -1 -21 0 -30 3 -21 -10 -23 -26 -7 -9 9 -10 6 -6
-10 4 -14 11 -20 22 -16 12 3 19 -5 28 -33 23 -74 -10 -190 -61 -213 -12 -5
-41 -21 -65 -34 -24 -14 -52 -25 -63 -25 -10 0 -18 -5 -18 -11 0 -6 6 -9 13
-6 6 2 19 1 28 -4 11 -6 21 -4 29 6 7 8 18 15 24 15 6 0 22 9 35 19 14 10 31
17 38 14 7 -3 13 2 13 11 0 9 7 19 15 22 8 4 15 17 15 29 0 27 16 41 24 23 3
-7 3 4 0 25 -5 30 -3 37 10 37 11 0 16 -9 16 -29 0 -17 4 -32 9 -35 5 -3 7
-16 3 -28 -3 -14 -2 -19 6 -14 18 11 14 52 -8 96 -11 22 -20 50 -20 64 0 13
-4 26 -9 28 -5 2 -12 18 -16 37 -5 25 -4 32 5 29 14 -4 51 -108 43 -120 -2 -5
0 -8 6 -8 5 0 12 -8 14 -17 3 -12 5 -9 6 8 1 35 -35 143 -50 148 -6 2 -19 12
-27 22 -19 22 -32 24 -33 7z"/>
<path d="M4520 4538 c0 -9 -6 -19 -12 -21 -8 -3 -7 -6 4 -6 22 -1 33 18 19 32
-8 8 -11 7 -11 -5z"/>
<path d="M1262 4505 c15 -14 32 -25 38 -25 5 0 10 -9 10 -19 0 -10 7 -21 15
-25 9 -3 15 0 15 9 0 19 -69 85 -89 85 -11 0 -8 -7 11 -25z"/>
<path d="M1436 4511 c-4 -7 -5 -15 -2 -18 9 -9 19 4 14 18 -4 11 -6 11 -12 0z"/>
<path d="M4466 4505 c-19 -15 -19 -15 2 -15 13 0 22 6 22 15 0 18 0 18 -24 0z"/>
<path d="M1485 4480 c-3 -5 -1 -10 4 -10 6 0 11 5 11 10 0 6 -2 10 -4 10 -3 0
-8 -4 -11 -10z"/>
<path d="M4891 4472 c-1 -24 26 -98 33 -91 3 2 -4 29 -14 59 -11 33 -19 46
-19 32z"/>
<path d="M4395 4454 c-20 -30 -15 -40 13 -25 14 7 18 17 15 31 -7 25 -7 25
-28 -6z"/>
<path d="M1450 4449 c0 -5 5 -7 10 -4 6 3 10 8 10 11 0 2 -4 4 -10 4 -5 0 -10
-5 -10 -11z"/>
<path d="M660 4435 c0 -8 4 -15 10 -15 5 0 7 7 4 15 -4 8 -8 15 -10 15 -2 0
-4 -7 -4 -15z"/>
<path d="M900 4410 c0 -5 14 -10 30 -10 17 0 30 5 30 10 0 6 -13 10 -30 10
-16 0 -30 -4 -30 -10z"/>
<path d="M1010 4405 c35 -20 57 -20 40 0 -7 8 -24 15 -39 15 l-26 -1 25 -14z"/>
<path d="M1381 4388 c5 -10 14 -18 19 -18 5 0 8 8 7 18 0 10 -9 18 -18 18 -14
0 -15 -4 -8 -18z"/>
<path d="M5006 4390 c10 -38 32 -87 32 -70 0 8 -8 33 -19 55 -10 22 -16 29
-13 15z"/>
<path d="M1080 4386 c0 -9 9 -16 20 -16 11 0 25 -9 32 -20 16 -25 32 -27 19
-2 -5 9 -23 25 -40 35 -27 16 -31 16 -31 3z"/>
<path d="M4340 4385 c0 -8 5 -15 10 -15 6 0 10 7 10 15 0 8 -4 15 -10 15 -5 0
-10 -7 -10 -15z"/>
<path d="M856 4374 c-8 -22 4 -40 15 -23 11 18 11 39 0 39 -5 0 -12 -7 -15
-16z"/>
<path d="M4971 4354 c0 -11 3 -14 6 -6 3 7 2 16 -1 19 -3 4 -6 -2 -5 -13z"/>
<path d="M4343 4325 c-12 -37 4 -106 26 -113 15 -5 14 20 -3 43 -8 11 -12 35
-9 62 4 52 0 55 -14 8z"/>
<path d="M820 4333 c0 -12 -8 -26 -17 -32 -23 -12 -11 -25 15 -17 27 9 36 36
17 55 -13 14 -15 13 -15 -6z"/>
<path d="M1040 4330 c0 -5 5 -10 11 -10 5 0 7 5 4 10 -3 6 -8 10 -11 10 -2 0
-4 -4 -4 -10z"/>
<path d="M1180 4331 c0 -6 5 -13 10 -16 6 -3 10 1 10 9 0 9 -4 16 -10 16 -5 0
-10 -4 -10 -9z"/>
<path d="M875 4320 c3 -5 8 -10 11 -10 2 0 4 5 4 10 0 6 -5 10 -11 10 -5 0 -7
-4 -4 -10z"/>
<path d="M1080 4321 c0 -5 12 -23 26 -38 18 -19 24 -22 20 -10 -3 10 -6 23 -6
27 0 5 -9 14 -20 20 -12 7 -20 7 -20 1z"/>
<path d="M4951 4294 c0 -11 3 -14 6 -6 3 7 2 16 -1 19 -3 4 -6 -2 -5 -13z"/>
<path d="M5002 4280 c0 -14 2 -19 5 -12 2 6 2 18 0 25 -3 6 -5 1 -5 -13z"/>
<path d="M850 4280 c0 -5 5 -10 11 -10 5 0 7 5 4 10 -3 6 -8 10 -11 10 -2 0
-4 -4 -4 -10z"/>
<path d="M3545 4280 c3 -5 8 -10 11 -10 2 0 4 5 4 10 0 6 -5 10 -11 10 -5 0
-7 -4 -4 -10z"/>
<path d="M5051 4264 c0 -11 3 -14 6 -6 3 7 2 16 -1 19 -3 4 -6 -2 -5 -13z"/>
<path d="M782 4256 c-15 -7 -21 -17 -18 -29 2 -10 -2 -21 -10 -24 -8 -3 -14
-11 -14 -18 0 -7 -7 -18 -16 -25 -21 -18 -14 -64 11 -69 17 -3 18 -1 6 13 -12
14 -12 18 2 29 8 7 17 21 19 32 2 11 9 21 16 21 25 3 27 5 12 14 -13 9 -11 13
10 30 30 23 17 42 -18 26z"/>
<path d="M1157 4254 c-3 -3 4 -22 16 -41 24 -41 36 -28 17 18 -12 28 -21 35
-33 23z"/>
<path d="M4743 4243 c-4 -10 -14 -23 -22 -30 -21 -15 -11 -24 17 -16 16 4 22
13 22 34 0 33 -7 38 -17 12z"/>
<path d="M5060 4226 c0 -8 4 -17 9 -20 5 -4 7 3 4 14 -6 23 -13 26 -13 6z"/>
<path d="M4415 4195 c4 -16 7 -43 8 -60 2 -31 13 -45 35 -45 10 0 9 5 -2 22
-9 12 -16 34 -16 48 0 14 -8 34 -16 45 -16 19 -16 19 -9 -10z"/>
<path d="M1240 4150 c0 -16 5 -30 10 -30 6 0 10 14 10 30 0 17 -4 30 -10 30
-5 0 -10 -13 -10 -30z"/>
<path d="M4460 4170 c0 -5 7 -10 16 -10 8 0 12 5 9 10 -3 6 -10 10 -16 10 -5
0 -9 -4 -9 -10z"/>
<path d="M790 4160 c0 -5 5 -10 11 -10 5 0 7 5 4 10 -3 6 -8 10 -11 10 -2 0
-4 -4 -4 -10z"/>
<path d="M1190 4136 c0 -19 -5 -47 -11 -63 -7 -19 -7 -29 0 -31 14 -5 14 -59
1 -67 -5 -3 -10 -16 -10 -28 1 -21 1 -21 15 -3 8 10 12 22 10 27 -3 4 -1 10 5
14 13 8 13 55 0 55 -11 0 -2 59 12 77 11 14 1 53 -13 53 -5 0 -9 -15 -9 -34z"/>
<path d="M4686 4161 c-4 -7 -5 -15 -2 -18 9 -9 19 4 14 18 -4 11 -6 11 -12 0z"/>
<path d="M4650 4140 c0 -19 3 -21 12 -12 9 9 9 15 0 24 -9 9 -12 7 -12 -12z"/>
<path d="M810 4130 c0 -5 5 -10 11 -10 5 0 7 5 4 10 -3 6 -8 10 -11 10 -2 0
-4 -4 -4 -10z"/>
<path d="M4120 4131 c0 -5 5 -13 10 -16 6 -3 10 -2 10 4 0 5 -4 13 -10 16 -5
3 -10 2 -10 -4z"/>
<path d="M4606 4131 c-4 -5 -2 -12 3 -15 5 -4 12 -2 15 3 4 5 2 12 -3 15 -5 4
-12 2 -15 -3z"/>
<path d="M5011 4115 c-1 -20 50 -180 61 -190 9 -10 -10 83 -23 106 -6 12 -17
40 -24 63 -7 22 -13 32 -14 21z"/>
<path d="M857 4106 c-3 -8 1 -17 8 -20 20 -7 28 9 11 23 -10 9 -15 8 -19 -3z"/>
<path d="M4530 4099 c0 -11 5 -17 10 -14 6 3 10 13 10 21 0 8 -4 14 -10 14 -5
0 -10 -9 -10 -21z"/>
<path d="M1220 4079 c12 -42 20 -49 20 -17 0 14 -7 31 -15 38 -12 10 -13 7 -5
-21z"/>
<path d="M4485 4101 c-3 -5 -1 -12 5 -16 5 -3 10 1 10 9 0 18 -6 21 -15 7z"/>
<path d="M780 4070 c0 -5 5 -10 11 -10 5 0 7 5 4 10 -3 6 -8 10 -11 10 -2 0
-4 -4 -4 -10z"/>
<path d="M820 4060 c0 -11 2 -20 4 -20 2 0 12 -3 21 -6 14 -6 14 -3 4 20 -14
31 -29 34 -29 6z"/>
<path d="M1028 4014 c3 -17 7 -22 12 -13 9 13 2 39 -10 39 -4 0 -5 -12 -2 -26z"/>
<path d="M4207 4020 c3 -11 7 -20 9 -20 2 0 4 9 4 20 0 11 -4 20 -9 20 -5 0
-7 -9 -4 -20z"/>
<path d="M4904 4026 c-3 -8 2 -28 10 -44 14 -26 14 -31 1 -36 -10 -4 -15 1
-15 14 0 11 -4 20 -10 20 -14 0 -13 -13 3 -34 11 -15 17 -16 34 -7 12 6 20 18
18 28 -12 61 -16 73 -26 73 -5 0 -12 -6 -15 -14z"/>
<path d="M870 4020 c0 -5 5 -10 11 -10 5 0 7 5 4 10 -3 6 -8 10 -11 10 -2 0
-4 -4 -4 -10z"/>
<path d="M1157 4024 c-4 -4 -7 -14 -7 -23 0 -11 3 -12 11 -4 6 6 10 16 7 23
-2 6 -7 8 -11 4z"/>
<path d="M491 3991 c-1 -24 2 -32 9 -25 7 7 7 19 1 35 -9 23 -10 22 -10 -10z"/>
<path d="M4836 4005 c-15 -8 -36 -15 -45 -15 -14 0 -81 -21 -121 -37 -8 -3
-20 -7 -27 -9 -27 -5 -120 -37 -151 -51 -25 -11 -32 -19 -27 -31 4 -9 8 -26
11 -36 5 -24 21 -42 31 -33 4 4 1 13 -5 19 -16 16 -15 36 3 55 18 17 121 44
142 36 7 -3 13 -1 13 5 0 6 -6 12 -12 15 -7 2 8 7 35 11 26 4 47 11 47 15 0 5
14 11 31 15 24 4 35 2 45 -11 13 -17 13 -17 14 2 0 15 11 25 35 34 19 7 35 17
35 22 0 13 -21 11 -54 -6z"/>
<path d="M542 3990 c0 -14 2 -19 5 -12 2 6 2 18 0 25 -3 6 -5 1 -5 -13z"/>
<path d="M940 3992 c0 -12 19 -26 26 -19 2 2 -2 10 -11 17 -9 8 -15 8 -15 2z"/>
<path d="M2661 3986 c-11 -14 -11 -16 2 -16 9 0 18 4 21 8 3 5 26 6 52 2 26
-4 66 -5 90 -2 39 4 46 1 73 -29 33 -36 43 -21 13 19 -15 20 -29 23 -127 28
-95 6 -112 5 -124 -10z"/>
<path d="M995 3950 c4 -6 11 -8 16 -5 14 9 11 15 -7 15 -8 0 -12 -5 -9 -10z"/>
<path d="M3702 3940 c0 -14 2 -19 5 -12 2 6 2 18 0 25 -3 6 -5 1 -5 -13z"/>
<path d="M4231 3944 c0 -11 3 -14 6 -6 3 7 2 16 -1 19 -3 4 -6 -2 -5 -13z"/>
<path d="M1045 3940 c-3 -5 1 -10 10 -10 9 0 13 5 10 10 -3 6 -8 10 -10 10 -2
0 -7 -4 -10 -10z"/>
<path d="M1090 3926 c0 -8 5 -18 10 -21 6 -3 10 3 10 14 0 12 -4 21 -10 21 -5
0 -10 -6 -10 -14z"/>
<path d="M2638 3934 c-5 -4 -8 -23 -8 -43 1 -30 2 -33 11 -18 11 19 8 73 -3
61z"/>
<path d="M476 3907 c3 -10 9 -15 12 -12 3 3 0 11 -7 18 -10 9 -11 8 -5 -6z"/>
<path d="M4725 3910 c3 -5 8 -10 11 -10 2 0 4 5 4 10 0 6 -5 10 -11 10 -5 0
-7 -4 -4 -10z"/>
<path d="M4776 3893 c-6 -14 -5 -15 5 -6 7 7 10 15 7 18 -3 3 -9 -2 -12 -12z"/>
<path d="M5080 3896 c0 -8 4 -17 9 -20 5 -4 7 3 4 14 -6 23 -13 26 -13 6z"/>
<path d="M1137 3893 c-4 -3 -7 -11 -7 -17 0 -6 5 -5 12 2 6 6 9 14 7 17 -3 3
-9 2 -12 -2z"/>
<path d="M2926 3891 c-4 -6 -2 -19 4 -30 5 -11 10 -29 10 -40 0 -18 17 -38 25
-30 4 5 -19 96 -27 104 -3 4 -9 2 -12 -4z"/>
<path d="M4682 3888 c2 -6 10 -14 16 -16 7 -2 10 2 6 12 -7 18 -28 22 -22 4z"/>
<path d="M4725 3880 c-3 -5 -1 -10 4 -10 6 0 11 5 11 10 0 6 -2 10 -4 10 -3 0
-8 -4 -11 -10z"/>
<path d="M530 3873 c0 -5 5 -15 10 -23 8 -12 10 -11 10 8 0 12 -4 22 -10 22
-5 0 -10 -3 -10 -7z"/>
<path d="M5140 3860 c0 -27 12 -60 21 -60 5 0 6 12 3 28 -8 31 -24 54 -24 32z"/>
<path d="M2607 3843 c-4 -3 -7 -19 -7 -34 0 -15 -4 -31 -10 -34 -5 -3 -10 -17
-10 -30 0 -13 -11 -45 -25 -71 -25 -47 -33 -94 -16 -94 5 0 11 10 14 23 3 12
14 45 24 72 11 28 25 71 31 96 6 26 14 54 18 63 6 16 -7 22 -19 9z"/>
<path d="M3740 3821 c0 -11 4 -22 9 -25 4 -3 6 6 3 19 -5 30 -12 33 -12 6z"/>
<path d="M461 3815 c1 -19 18 -51 18 -35 0 8 -4 22 -9 30 -5 8 -9 11 -9 5z"/>
<path d="M5121 3784 c0 -11 3 -14 6 -6 3 7 2 16 -1 19 -3 4 -6 -2 -5 -13z"/>
<path d="M5081 3763 c-1 -17 4 -35 9 -38 6 -3 10 -14 10 -24 0 -22 30 -84 37
-77 3 3 0 20 -7 38 -7 18 -21 56 -31 83 -16 47 -18 48 -18 18z"/>
<path d="M2965 3769 c-6 -17 21 -116 36 -133 5 -6 9 -20 9 -33 0 -13 8 -49 19
-81 10 -31 26 -84 36 -117 9 -33 27 -94 40 -135 12 -41 40 -136 60 -210 21
-74 46 -160 56 -190 9 -30 20 -72 24 -93 4 -20 11 -40 16 -43 5 -3 9 -13 9
-22 0 -9 5 -33 10 -53 11 -38 12 -39 107 -56 43 -7 55 -24 51 -70 l-3 -38 -65
-6 c-36 -4 -182 -6 -325 -5 l-260 1 -3 44 c-4 49 7 65 46 68 15 0 43 5 62 10
33 9 35 11 33 49 -3 59 -48 203 -67 216 -17 12 -336 5 -345 -7 -4 -5 -20 -53
-35 -105 -16 -52 -33 -105 -39 -117 -12 -27 -11 -29 26 -38 27 -7 38 7 17 20
-6 4 -8 21 -5 38 3 18 7 43 9 57 1 14 8 35 14 47 7 12 12 32 12 45 0 30 36 54
55 38 8 -7 19 -9 24 -5 18 10 241 9 252 -2 14 -14 51 -172 45 -189 -7 -18 -72
-44 -111 -44 l-33 0 1 -75 2 -75 30 -1 c17 0 174 0 350 1 363 1 345 -3 345 84
-1 61 -30 107 -55 86 -18 -15 -36 -4 -29 18 5 13 4 14 -4 3 -7 -9 -16 -11 -28
-6 -11 4 -25 9 -33 9 -16 1 -28 26 -13 26 5 0 -1 26 -14 58 -13 31 -24 66 -24
77 0 11 -6 29 -14 40 -7 11 -17 42 -21 70 -4 27 -14 63 -23 80 -9 16 -15 34
-14 39 2 4 -13 56 -31 115 -19 58 -49 156 -66 216 -18 61 -39 125 -47 143 -8
18 -12 38 -9 43 4 5 -1 19 -9 31 -9 12 -16 34 -16 49 0 14 -3 29 -7 33 -4 4
-15 31 -24 59 -12 36 -19 47 -24 36z"/>
<path d="M4251 3754 c0 -11 3 -14 6 -6 3 7 2 16 -1 19 -3 4 -6 -2 -5 -13z"/>
<path d="M441 3734 c0 -11 3 -14 6 -6 3 7 2 16 -1 19 -3 4 -6 -2 -5 -13z"/>
<path d="M1065 3730 c4 -14 11 -32 16 -40 6 -13 9 -12 15 3 5 13 0 26 -16 40
l-22 22 7 -25z"/>
<path d="M491 3724 c0 -11 3 -14 6 -6 3 7 2 16 -1 19 -3 4 -6 -2 -5 -13z"/>
<path d="M1010 3729 c0 -6 -7 -8 -17 -4 -13 4 -15 3 -7 -5 6 -6 18 -8 27 -4
18 7 23 24 7 24 -5 0 -10 -5 -10 -11z"/>
<path d="M4262 3700 c0 -14 2 -19 5 -12 2 6 2 18 0 25 -3 6 -5 1 -5 -13z"/>
<path d="M950 3694 c0 -8 5 -12 10 -9 6 3 10 10 10 16 0 5 -4 9 -10 9 -5 0
-10 -7 -10 -16z"/>
<path d="M856 3684 c-4 -11 -1 -14 11 -12 9 2 18 9 21 16 6 18 -25 15 -32 -4z"/>
<path d="M1040 3684 c0 -8 5 -12 10 -9 6 3 10 10 10 16 0 5 -4 9 -10 9 -5 0
-10 -7 -10 -16z"/>
<path d="M1010 3680 c-8 -5 -11 -12 -7 -16 4 -4 13 -2 19 4 15 15 7 24 -12 12z"/>
<path d="M4906 3683 c-3 -3 -43 -5 -90 -5 -47 1 -87 -2 -89 -6 -7 -13 5 -82
15 -82 5 0 6 16 2 36 -5 28 -4 35 5 29 13 -8 35 -55 32 -68 -1 -5 13 -7 31 -5
20 2 32 8 31 16 -2 6 2 12 7 12 6 0 10 -4 10 -10 0 -16 17 -12 24 6 9 23 -3
37 -20 23 -11 -9 -18 -9 -26 -1 -15 15 -10 20 26 24 24 3 30 -2 40 -32 8 -23
17 -33 26 -30 8 2 32 4 53 4 l38 0 -7 40 c-3 23 -8 42 -9 44 -5 6 -94 10 -99
5z m-100 -28 c-3 -8 -1 -15 4 -15 6 0 10 -12 10 -26 0 -29 -22 -28 -26 1 -2
11 -8 21 -14 23 -8 3 -7 8 1 18 15 19 33 18 25 -1z m144 -20 c0 -8 -7 -15 -15
-15 -8 0 -15 7 -15 15 0 8 7 15 15 15 8 0 15 -7 15 -15z"/>
<path d="M5161 3670 c-1 -27 14 -58 24 -48 3 3 -1 21 -9 39 -13 31 -14 32 -15
9z"/>
<path d="M820 3666 c0 -9 5 -16 10 -16 6 0 10 4 10 9 0 6 -4 13 -10 16 -5 3
-10 -1 -10 -9z"/>
<path d="M4555 3671 l-39 -6 -2 -155 c-2 -170 3 -223 19 -217 13 4 20 54 9 61
-5 3 -7 45 -4 93 4 79 4 140 1 160 -4 22 2 44 10 39 4 -3 23 -1 41 4 22 6 38
6 46 -1 14 -12 29 5 19 21 -7 11 -35 11 -100 1z"/>
<path d="M4676 3671 c-4 -5 -3 -17 0 -26 5 -13 8 -14 15 -3 5 7 9 19 9 26 0
14 -16 16 -24 3z"/>
<path d="M740 3634 c0 -8 5 -12 10 -9 6 3 10 10 10 16 0 5 -4 9 -10 9 -5 0
-10 -7 -10 -16z"/>
<path d="M430 3633 c0 -5 5 -15 10 -23 8 -12 10 -11 10 8 0 12 -4 22 -10 22
-5 0 -10 -3 -10 -7z"/>
<path d="M970 3626 c0 -9 5 -16 10 -16 6 0 10 4 10 9 0 6 -4 13 -10 16 -5 3
-10 -1 -10 -9z"/>
<path d="M491 3610 c0 -14 6 -36 14 -50 18 -32 18 -26 1 30 -11 32 -15 38 -15
20z"/>
<path d="M640 3614 c-42 -18 -50 -29 -50 -75 0 -47 24 -70 45 -43 9 12 15 14
16 7 1 -7 3 -17 4 -23 1 -5 3 -14 4 -20 0 -5 9 -10 19 -10 10 0 24 -6 30 -12
10 -10 12 -6 10 20 -2 34 -18 57 -18 28 0 -27 -20 -18 -31 13 -10 28 -39 51
-39 31 0 -6 -4 -10 -9 -10 -5 0 -8 12 -6 28 2 15 4 30 4 35 1 4 4 6 9 6 4 -1
9 0 12 1 8 3 44 11 60 14 8 1 16 6 18 11 4 16 -41 16 -78 -1z"/>
<path d="M797 3616 c-3 -8 -2 -18 3 -21 13 -8 20 9 11 24 -6 10 -10 9 -14 -3z"/>
<path d="M840 3615 c-8 -9 -8 -15 -2 -15 12 0 26 19 19 26 -2 2 -10 -2 -17
-11z"/>
<path d="M895 3610 c3 -5 8 -10 11 -10 2 0 4 5 4 10 0 6 -5 10 -11 10 -5 0 -7
-4 -4 -10z"/>
<path d="M4573 3608 c-13 -23 -13 -48 1 -48 8 0 13 11 12 30 -1 34 -2 35 -13
18z"/>
<path d="M4687 3606 c-4 -9 -14 -12 -28 -9 -15 4 -20 3 -15 -5 8 -14 45 -16
64 -3 10 6 10 10 -1 20 -12 9 -16 8 -20 -3z"/>
<path d="M5090 3596 c0 -27 34 -99 42 -91 8 8 -3 55 -13 55 -5 0 -9 11 -9 24
0 14 -4 28 -10 31 -6 4 -10 -5 -10 -19z"/>
<path d="M916 3579 c-13 -60 -10 -109 8 -109 10 0 12 15 9 62 -5 69 -9 82 -17
47z"/>
<path d="M5140 3583 c0 -12 5 -25 10 -28 13 -8 13 15 0 35 -8 12 -10 11 -10
-7z"/>
<path d="M972 3568 c-15 -15 -16 -75 0 -84 8 -5 9 4 5 31 -4 23 -2 44 5 52 13
16 6 17 -10 1z"/>
<path d="M422 3535 c0 -16 2 -22 5 -12 2 9 2 23 0 30 -3 6 -5 -1 -5 -18z"/>
<path d="M2520 3545 c0 -8 2 -15 4 -15 2 0 6 7 10 15 3 8 1 15 -4 15 -6 0 -10
-7 -10 -15z"/>
<path d="M684 3539 c-3 -6 -1 -16 5 -22 8 -8 11 -5 11 11 0 24 -5 28 -16 11z"/>
<path d="M4280 3520 c0 -14 5 -32 10 -40 8 -12 10 -10 10 10 0 14 -5 32 -10
40 -8 12 -10 10 -10 -10z"/>
<path d="M4330 3513 c0 -21 3 -24 9 -14 5 8 7 20 4 28 -8 21 -13 15 -13 -14z"/>
<path d="M4570 3522 c-14 -6 -14 -14 2 -67 l17 -60 -2 67 c-1 38 -2 68 -2 67
0 0 -7 -3 -15 -7z"/>
<path d="M5160 3518 c0 -7 5 -20 10 -28 8 -12 10 -9 10 13 0 15 -4 27 -10 27
-5 0 -10 -6 -10 -12z"/>
<path d="M740 3505 c0 -16 16 -20 24 -6 3 5 -1 11 -9 15 -9 3 -15 0 -15 -9z"/>
<path d="M2495 3490 c-4 -16 -11 -32 -16 -35 -5 -4 -9 -19 -9 -34 0 -16 -7
-34 -16 -42 -8 -7 -13 -20 -11 -29 2 -9 -2 -25 -9 -35 -8 -10 -14 -31 -14 -47
0 -15 -4 -28 -10 -28 -5 0 -10 -9 -10 -19 0 -11 -4 -23 -10 -26 -5 -3 -10 -18
-10 -33 0 -15 -11 -49 -25 -77 -13 -27 -25 -57 -25 -66 0 -9 -7 -22 -15 -29
-9 -7 -13 -20 -10 -27 7 -20 -5 -64 -16 -57 -5 3 -9 -6 -9 -20 0 -14 -5 -28
-11 -32 -6 -3 -9 -17 -6 -30 2 -13 0 -24 -4 -24 -5 0 -9 -11 -9 -25 0 -14 -7
-42 -15 -62 -8 -19 -15 -44 -15 -55 0 -13 -6 -18 -17 -16 -10 2 -26 -5 -35
-14 -10 -10 -30 -18 -46 -18 -15 0 -38 -7 -50 -16 -12 -8 -22 -10 -22 -5 0 6
-4 11 -9 11 -4 0 -8 -31 -7 -69 1 -61 4 -71 21 -75 25 -6 137 -10 230 -9 39 1
127 1 198 2 113 1 127 3 128 19 0 9 2 28 4 42 3 33 -9 105 -18 104 -3 0 -27 2
-52 6 -40 6 -45 5 -45 -13 0 -16 5 -18 34 -13 31 6 35 4 44 -22 8 -24 9 -43 3
-87 -1 -12 -487 -19 -494 -7 -3 4 -8 25 -11 48 -7 37 -5 41 19 52 14 7 37 12
50 12 35 0 88 35 92 60 2 12 10 34 18 49 8 16 18 48 21 72 4 24 12 53 19 64 7
11 18 40 25 65 7 25 17 55 22 67 6 12 8 33 4 46 -4 16 -1 27 7 30 14 5 25 32
76 192 18 55 43 129 56 165 30 84 38 120 26 120 -5 0 -12 -13 -16 -30z"/>
<path d="M2692 3485 c-7 -22 -12 -48 -12 -57 0 -9 -4 -19 -9 -22 -7 -5 -20
-45 -26 -81 -3 -21 -27 -98 -35 -114 -14 -28 -40 -115 -40 -134 0 -16 11 -17
121 -16 l122 1 -6 54 c-3 30 -13 68 -21 85 -9 17 -14 34 -12 38 2 3 -3 31 -11
61 -8 30 -17 66 -20 80 -2 14 -7 32 -11 40 -3 8 -11 35 -17 60 l-11 45 -12
-40z m28 -95 c6 -12 12 -40 12 -63 1 -23 5 -46 9 -52 10 -14 39 -132 39 -160
0 -21 -5 -23 -82 -28 -46 -2 -86 -2 -90 2 -8 7 8 86 23 115 17 29 51 168 45
182 -4 11 6 21 26 23 4 1 12 -8 18 -19z"/>
<path d="M4161 3504 c0 -11 3 -14 6 -6 3 7 2 16 -1 19 -3 4 -6 -2 -5 -13z"/>
<path d="M3801 3494 c0 -11 3 -14 6 -6 3 7 2 16 -1 19 -3 4 -6 -2 -5 -13z"/>
<path d="M480 3484 c0 -11 7 -29 16 -40 14 -18 15 -18 8 6 -3 14 -10 32 -15
40 -7 12 -8 11 -9 -6z"/>
<path d="M430 3481 c0 -5 5 -13 10 -16 6 -3 10 -2 10 4 0 5 -4 13 -10 16 -5 3
-10 2 -10 -4z"/>
<path d="M5087 3422 c-7 -66 3 -136 16 -116 3 6 2 26 -3 45 -13 44 -13 49 4
49 8 0 19 -20 26 -47 18 -72 19 -73 31 -73 6 0 8 6 6 13 -3 6 -14 36 -23 65
-10 28 -21 52 -26 52 -4 0 -8 15 -8 34 0 63 -17 47 -23 -22z"/>
<path d="M780 3466 c0 -8 16 -16 41 -20 44 -7 65 -1 33 9 -10 4 -27 11 -36 16
-25 13 -38 11 -38 -5z"/>
<path d="M5144 3455 c13 -79 23 -110 30 -93 5 10 -1 39 -13 70 -14 34 -20 42
-17 23z"/>
<path d="M767 3419 c7 -7 15 -10 18 -7 3 3 -2 9 -12 12 -14 6 -15 5 -6 -5z"/>
<path d="M421 3386 c-1 -26 2 -37 9 -30 6 6 6 21 1 39 -9 30 -9 30 -10 -9z"/>
<path d="M950 3402 c0 -11 7 -22 15 -26 8 -3 15 -1 15 5 0 6 -7 17 -15 25 -13
14 -15 13 -15 -4z"/>
<path d="M4331 3393 c-1 -12 4 -25 9 -28 12 -7 12 2 0 30 -8 19 -9 19 -9 -2z"/>
<path d="M3802 3375 c0 -16 2 -22 5 -12 2 9 2 23 0 30 -3 6 -5 -1 -5 -18z"/>
<path d="M4554 3383 c2 -10 7 -33 11 -50 6 -31 25 -47 25 -22 0 24 -24 89 -32
89 -5 0 -7 -8 -4 -17z"/>
<path d="M835 3380 c27 -12 43 -12 25 0 -8 5 -22 9 -30 9 -10 0 -8 -3 5 -9z"/>
<path d="M4286 3381 c-4 -7 -5 -15 -2 -18 9 -9 19 4 14 18 -4 11 -6 11 -12 0z"/>
<path d="M1000 3370 c0 -5 4 -10 9 -10 5 0 18 -3 28 -6 16 -5 16 -4 -1 10 -23
18 -36 20 -36 6z"/>
<path d="M915 3350 c-3 -5 1 -13 10 -16 22 -9 29 1 11 15 -10 8 -16 9 -21 1z"/>
<path d="M1060 3346 c0 -9 5 -16 10 -16 6 0 10 4 10 9 0 6 -4 13 -10 16 -5 3
-10 -1 -10 -9z"/>
<path d="M1022 3300 c-7 -12 -8 -21 -2 -25 13 -8 30 3 30 20 0 23 -15 25 -28
5z"/>
<path d="M1481 3284 c0 -11 3 -14 6 -6 3 7 2 16 -1 19 -3 4 -6 -2 -5 -13z"/>
<path d="M3802 3250 c0 -19 2 -27 5 -17 2 9 2 25 0 35 -3 9 -5 1 -5 -18z"/>
<path d="M5070 3269 c0 -6 12 -44 26 -83 14 -39 25 -72 24 -74 -1 -2 1 -6 4
-9 14 -14 16 29 3 54 -9 15 -21 49 -28 76 -12 43 -29 64 -29 36z"/>
<path d="M5110 3266 c0 -8 4 -17 9 -20 5 -4 13 -25 17 -49 5 -33 8 -38 14 -22
4 11 0 38 -9 63 -15 41 -31 56 -31 28z"/>
<path d="M4280 3254 c0 -8 5 -12 10 -9 6 3 10 10 10 16 0 5 -4 9 -10 9 -5 0
-10 -7 -10 -16z"/>
<path d="M3672 3240 c0 -14 2 -19 5 -12 2 6 2 18 0 25 -3 6 -5 1 -5 -13z"/>
<path d="M1273 3230 c4 -14 7 -28 7 -32 0 -5 5 -8 10 -8 7 0 6 8 -1 23 -7 12
-11 24 -10 25 2 2 -1 7 -5 10 -4 4 -4 -4 -1 -18z"/>
<path d="M430 3217 c0 -13 7 -32 16 -43 15 -18 15 -18 10 6 -3 14 -6 33 -6 43
0 9 -4 17 -10 17 -5 0 -10 -10 -10 -23z"/>
<path d="M5064 3158 c4 -20 13 -50 21 -65 8 -15 15 -36 15 -45 0 -9 5 -20 10
-23 12 -8 6 23 -20 103 -21 64 -35 80 -26 30z"/>
<path d="M464 3104 c3 -9 6 -22 6 -30 0 -8 4 -14 10 -14 5 0 8 10 6 23 -3 12
-5 25 -5 30 -1 4 -6 7 -12 7 -6 0 -8 -7 -5 -16z"/>
<path d="M520 3093 c0 -15 36 -122 43 -129 4 -4 7 -17 8 -28 0 -12 3 -15 6 -9
2 7 -5 40 -16 73 -12 33 -21 67 -21 74 0 8 -4 18 -10 21 -5 3 -10 3 -10 -2z"/>
<path d="M5047 3093 c-12 -11 -8 -40 8 -53 13 -10 15 -9 15 11 0 28 -13 52
-23 42z"/>
<path d="M3995 3070 c3 -5 8 -10 11 -10 2 0 4 5 4 10 0 6 -5 10 -11 10 -5 0
-7 -4 -4 -10z"/>
<path d="M4262 3050 c0 -19 2 -27 5 -17 2 9 2 25 0 35 -3 9 -5 1 -5 -18z"/>
<path d="M501 3024 c0 -11 3 -14 6 -6 3 7 2 16 -1 19 -3 4 -6 -2 -5 -13z"/>
<path d="M5025 3018 c-3 -9 2 -35 14 -60 16 -35 20 -38 20 -18 0 14 -6 41 -14
60 -10 27 -14 31 -20 18z"/>
<path d="M455 3003 c4 -10 13 -40 20 -68 7 -27 20 -67 29 -89 9 -21 16 -46 16
-55 0 -9 6 -28 14 -42 7 -14 16 -42 20 -62 9 -47 55 -148 55 -122 1 16 -22 89
-52 165 -3 8 -15 49 -27 90 -33 119 -63 200 -73 200 -5 0 -6 -8 -2 -17z"/>
<path d="M5070 3004 c0 -11 4 -24 9 -29 5 -6 11 -19 14 -30 2 -11 3 -3 2 19
-4 41 -25 76 -25 40z"/>
<path d="M4240 2970 c0 -5 5 -10 11 -10 5 0 7 5 4 10 -3 6 -8 10 -11 10 -2 0
-4 -4 -4 -10z"/>
<path d="M1328 2943 c5 -21 7 -23 10 -9 2 10 0 22 -6 28 -6 6 -7 0 -4 -19z"/>
<path d="M5004 2946 c-4 -11 0 -24 10 -34 16 -16 17 -15 10 13 -9 38 -12 42
-20 21z"/>
<path d="M540 2893 c0 -12 5 -25 10 -28 13 -8 13 15 0 35 -8 12 -10 11 -10 -7z"/>
<path d="M5078 2904 c-5 -4 -8 -16 -8 -28 0 -14 3 -17 11 -9 6 6 9 19 7 28 -1
9 -6 13 -10 9z"/>
<path d="M4980 2875 c0 -15 4 -25 28 -72 7 -13 12 -34 12 -48 0 -14 5 -25 10
-25 14 0 13 35 -2 63 -24 46 -28 57 -28 71 0 8 -4 18 -10 21 -5 3 -10 -1 -10
-10z"/>
<path d="M5031 2873 c-1 -12 4 -34 10 -50 10 -26 11 -27 21 -9 7 13 7 20 0 25
-6 4 -15 18 -21 31 -9 24 -10 24 -10 3z"/>
<path d="M4067 2859 c4 -13 8 -18 11 -10 2 7 -1 18 -6 23 -8 8 -9 4 -5 -13z"/>
<path d="M1361 2844 c0 -11 3 -14 6 -6 3 7 2 16 -1 19 -3 4 -6 -2 -5 -13z"/>
<path d="M3852 2840 c0 -14 2 -19 5 -12 2 6 2 18 0 25 -3 6 -5 1 -5 -13z"/>
<path d="M3550 2799 c0 -11 5 -17 10 -14 6 3 10 13 10 21 0 8 -4 14 -10 14 -5
0 -10 -9 -10 -21z"/>
<path d="M4960 2796 c0 -14 5 -26 10 -26 6 0 10 -8 10 -19 0 -10 7 -31 15 -47
12 -24 15 -26 21 -10 5 12 2 22 -9 27 -8 5 -18 27 -22 49 -8 46 -25 64 -25 26z"/>
<path d="M3680 2801 c0 -6 5 -13 10 -16 6 -3 10 1 10 9 0 9 -4 16 -10 16 -5 0
-10 -4 -10 -9z"/>
<path d="M3821 2784 c0 -11 3 -14 6 -6 3 7 2 16 -1 19 -3 4 -6 -2 -5 -13z"/>
<path d="M3911 2784 c0 -11 3 -14 6 -6 3 7 2 16 -1 19 -3 4 -6 -2 -5 -13z"/>
<path d="M3881 2755 c0 -11 4 -29 9 -40 8 -18 9 -18 9 5 0 14 -4 32 -9 40 -8
12 -10 12 -9 -5z"/>
<path d="M4936 2762 c-4 -8 -1 -27 8 -47 9 -18 19 -47 22 -64 4 -17 10 -31 15
-31 12 0 11 25 0 48 -17 34 -30 67 -33 87 -3 15 -6 17 -12 7z"/>
<path d="M3791 2743 c0 -5 4 -17 9 -28 8 -18 9 -17 9 8 1 15 -3 27 -9 27 -5 0
-10 -3 -9 -7z"/>
<path d="M3700 2730 c0 -5 5 -10 11 -10 5 0 7 5 4 10 -3 6 -8 10 -11 10 -2 0
-4 -4 -4 -10z"/>
<path d="M4021 2724 c0 -11 3 -14 6 -6 3 7 2 16 -1 19 -3 4 -6 -2 -5 -13z"/>
<path d="M3850 2705 c0 -14 4 -25 9 -25 4 0 6 11 3 25 -2 14 -6 25 -8 25 -2 0
-4 -11 -4 -25z"/>
<path d="M600 2703 c0 -4 5 -15 10 -23 8 -13 10 -13 10 2 0 9 -4 20 -10 23 -5
3 -10 3 -10 -2z"/>
<path d="M4910 2675 c0 -14 5 -25 10 -25 6 0 10 11 10 25 0 14 -4 25 -10 25
-5 0 -10 -11 -10 -25z"/>
<path d="M3990 2640 c0 -5 5 -10 10 -10 6 0 10 5 10 10 0 6 -4 10 -10 10 -5 0
-10 -4 -10 -10z"/>
<path d="M632 2620 c0 -14 2 -19 5 -12 2 6 2 18 0 25 -3 6 -5 1 -5 -13z"/>
<path d="M4895 2615 c3 -16 9 -42 12 -58 3 -15 9 -30 14 -33 17 -10 9 42 -11
82 -19 36 -20 36 -15 9z"/>
<path d="M4937 2625 c-7 -18 1 -45 14 -45 5 0 6 12 3 28 -9 35 -10 36 -17 17z"/>
<path d="M1475 2610 c3 -5 8 -10 11 -10 2 0 4 5 4 10 0 6 -5 10 -11 10 -5 0
-7 -4 -4 -10z"/>
<path d="M3660 2591 c0 -5 5 -13 10 -16 6 -3 10 -2 10 4 0 5 -4 13 -10 16 -5
3 -10 2 -10 -4z"/>
<path d="M3750 2589 c0 -5 5 -7 10 -4 6 3 10 8 10 11 0 2 -4 4 -10 4 -5 0 -10
-5 -10 -11z"/>
<path d="M3581 2574 c0 -11 3 -14 6 -6 3 7 2 16 -1 19 -3 4 -6 -2 -5 -13z"/>
<path d="M4860 2577 c0 -24 37 -119 43 -110 7 11 -25 123 -35 123 -5 0 -8 -6
-8 -13z"/>
<path d="M691 2564 c0 -11 3 -14 6 -6 3 7 2 16 -1 19 -3 4 -6 -2 -5 -13z"/>
<path d="M651 2553 c-1 -12 4 -25 9 -28 12 -7 12 2 0 30 -8 19 -9 19 -9 -2z"/>
<path d="M3857 2540 c3 -11 7 -20 9 -20 2 0 4 9 4 20 0 11 -4 20 -9 20 -5 0
-7 -9 -4 -20z"/>
<path d="M3550 2534 c0 -8 5 -12 10 -9 6 4 8 11 5 16 -9 14 -15 11 -15 -7z"/>
<path d="M3821 2534 c0 -11 3 -14 6 -6 3 7 2 16 -1 19 -3 4 -6 -2 -5 -13z"/>
<path d="M3911 2524 c0 -11 3 -14 6 -6 3 7 2 16 -1 19 -3 4 -6 -2 -5 -13z"/>
<path d="M4840 2502 c0 -18 6 -32 16 -36 9 -4 13 -13 10 -23 -3 -10 -1 -25 4
-33 18 -29 24 20 6 50 -9 16 -16 35 -16 43 0 9 -4 19 -10 22 -6 4 -10 -6 -10
-23z"/>
<path d="M666 2481 c-3 -5 1 -14 9 -21 12 -10 15 -10 15 3 0 19 -16 31 -24 18z"/>
<path d="M3790 2466 c0 -14 5 -26 10 -26 6 0 10 9 10 19 0 11 -4 23 -10 26 -6
4 -10 -5 -10 -19z"/>
<path d="M731 2464 c0 -11 3 -14 6 -6 3 7 2 16 -1 19 -3 4 -6 -2 -5 -13z"/>
<path d="M3880 2460 c0 -19 3 -21 12 -12 9 9 9 15 0 24 -9 9 -12 7 -12 -12z"/>
<path d="M4810 2468 c0 -8 -7 -21 -15 -28 -17 -14 -20 -50 -5 -50 6 0 10 -18
10 -40 0 -22 5 -40 10 -40 13 0 13 34 -2 81 -13 44 -6 58 18 38 15 -12 16 -11
9 11 -9 32 -25 49 -25 28z"/>
<path d="M3850 2431 c0 -12 5 -21 10 -21 6 0 10 6 10 14 0 8 -4 18 -10 21 -5
3 -10 -3 -10 -14z"/>
<path d="M690 2421 c0 -11 5 -23 10 -26 6 -3 10 3 10 14 0 11 -4 23 -10 26 -5
3 -10 -3 -10 -14z"/>
<path d="M744 2410 c3 -14 6 -31 6 -37 0 -7 5 -13 10 -13 12 0 2 50 -13 65 -6
7 -8 2 -3 -15z"/>
<path d="M3291 2394 c0 -11 3 -14 6 -6 3 7 2 16 -1 19 -3 4 -6 -2 -5 -13z"/>
<path d="M1640 2393 c0 -4 5 -15 10 -23 8 -13 10 -13 10 2 0 9 -4 20 -10 23
-5 3 -10 3 -10 -2z"/>
<path d="M2406 2377 c3 -10 9 -15 12 -12 3 3 0 11 -7 18 -10 9 -11 8 -5 -6z"/>
<path d="M4750 2371 c0 -11 5 -23 10 -26 6 -4 10 5 10 19 0 14 -4 26 -10 26
-5 0 -10 -9 -10 -19z"/>
<path d="M4840 2374 c0 -8 5 -12 10 -9 6 4 8 11 5 16 -9 14 -15 11 -15 -7z"/>
<path d="M710 2356 c0 -22 18 -56 30 -56 6 0 5 12 -2 28 -16 37 -28 50 -28 28z"/>
<path d="M3790 2354 c0 -8 5 -12 10 -9 6 4 8 11 5 16 -9 14 -15 11 -15 -7z"/>
<path d="M3531 2330 c0 -14 4 -32 9 -40 8 -12 10 -12 9 5 0 11 -4 29 -9 40 -8
18 -9 18 -9 -5z"/>
<path d="M810 2338 c0 -3 7 -21 15 -39 16 -34 16 -34 10 -4 -6 26 -25 60 -25
43z"/>
<path d="M1840 2326 c0 -8 5 -18 10 -21 6 -3 10 1 10 9 0 8 -4 18 -10 21 -5 3
-10 -1 -10 -9z"/>
<path d="M2021 2324 c0 -11 3 -14 6 -6 3 7 2 16 -1 19 -3 4 -6 -2 -5 -13z"/>
<path d="M3480 2331 c0 -5 5 -13 10 -16 6 -3 10 -2 10 4 0 5 -4 13 -10 16 -5
3 -10 2 -10 -4z"/>
<path d="M4725 2313 c4 -16 8 -35 9 -42 2 -8 8 -17 15 -19 9 -3 11 2 8 14 -4
11 -9 31 -13 47 -3 15 -11 27 -16 27 -6 0 -7 -11 -3 -27z"/>
<path d="M4780 2290 c0 -19 3 -21 12 -12 9 9 9 15 0 24 -9 9 -12 7 -12 -12z"/>
<path d="M4690 2284 c0 -11 7 -29 15 -40 14 -18 15 -17 9 11 -8 37 -24 57 -24
29z"/>
<path d="M3720 2269 c0 -11 5 -17 10 -14 6 3 10 13 10 21 0 8 -4 14 -10 14 -5
0 -10 -9 -10 -21z"/>
<path d="M1911 2254 c0 -11 3 -14 6 -6 3 7 2 16 -1 19 -3 4 -6 -2 -5 -13z"/>
<path d="M794 2229 c7 -36 36 -83 36 -57 0 20 -28 88 -36 88 -4 0 -4 -14 0
-31z"/>
<path d="M2012 2240 c0 -14 2 -19 5 -12 2 6 2 18 0 25 -3 6 -5 1 -5 -13z"/>
<path d="M4660 2231 c0 -11 4 -22 9 -26 5 -3 13 -19 16 -36 4 -19 11 -27 16
-22 6 6 3 28 -8 56 -18 49 -33 61 -33 28z"/>
<path d="M840 2232 c0 -5 7 -17 16 -28 14 -17 15 -17 10 -1 -3 10 -6 23 -6 28
0 5 -4 9 -10 9 -5 0 -10 -4 -10 -8z"/>
<path d="M2501 2214 c0 -11 3 -14 6 -6 3 7 2 16 -1 19 -3 4 -6 -2 -5 -13z"/>
<path d="M4710 2210 c0 -5 5 -10 10 -10 6 0 10 5 10 10 0 6 -4 10 -10 10 -5 0
-10 -4 -10 -10z"/>
<path d="M906 2187 c3 -10 9 -15 12 -12 3 3 0 11 -7 18 -10 9 -11 8 -5 -6z"/>
<path d="M2551 2195 c0 -5 8 -26 19 -45 11 -19 19 -30 19 -25 0 6 -8 26 -19
45 -11 19 -19 31 -19 25z"/>
<path d="M4638 2194 c-7 -6 10 -52 25 -69 6 -6 6 4 2 25 -8 38 -18 54 -27 44z"/>
<path d="M3490 2170 c0 -5 5 -10 11 -10 5 0 7 5 4 10 -3 6 -8 10 -11 10 -2 0
-4 -4 -4 -10z"/>
<path d="M4600 2160 c0 -11 5 -20 10 -20 6 0 10 9 10 20 0 11 -4 20 -10 20 -5
0 -10 -9 -10 -20z"/>
<path d="M860 2160 c0 -5 7 -10 16 -10 8 0 12 5 9 10 -3 6 -10 10 -16 10 -5 0
-9 -4 -9 -10z"/>
<path d="M2397 2139 c4 -13 8 -18 11 -10 2 7 -1 18 -6 23 -8 8 -9 4 -5 -13z"/>
<path d="M2130 2130 c0 -5 5 -10 10 -10 6 0 10 5 10 10 0 6 -4 10 -10 10 -5 0
-10 -4 -10 -10z"/>
<path d="M2624 2127 c4 -11 9 -30 12 -43 3 -13 10 -24 15 -24 12 0 12 1 -12
46 -11 21 -18 31 -15 21z"/>
<path d="M2891 2120 c0 -14 4 -34 9 -45 7 -17 9 -16 9 10 0 17 -4 37 -9 45 -8
12 -10 10 -9 -10z"/>
<path d="M3061 2124 c0 -11 3 -14 6 -6 3 7 2 16 -1 19 -3 4 -6 -2 -5 -13z"/>
<path d="M4580 2109 c0 -20 6 -44 14 -54 12 -16 13 -13 6 28 -9 58 -20 72 -20
26z"/>
<path d="M880 2113 c0 -28 10 -53 21 -53 11 0 1 50 -12 65 -5 5 -9 0 -9 -12z"/>
<path d="M930 2111 c0 -11 4 -22 9 -25 4 -3 6 6 3 19 -5 30 -12 33 -12 6z"/>
<path d="M974 2114 c3 -9 9 -27 12 -40 3 -13 10 -24 15 -24 12 0 11 5 -5 45
-15 34 -34 51 -22 19z"/>
<path d="M2090 2120 c0 -8 5 -22 10 -30 9 -13 10 -13 10 0 0 8 -5 22 -10 30
-9 13 -10 13 -10 0z"/>
<path d="M4620 2095 c0 -14 5 -25 10 -25 6 0 10 11 10 25 0 14 -4 25 -10 25
-5 0 -10 -11 -10 -25z"/>
<path d="M4536 2101 c-4 -6 -2 -19 4 -30 5 -11 10 -32 10 -46 0 -17 5 -25 13
-22 14 4 11 35 -7 79 -8 18 -16 26 -20 19z"/>
<path d="M3216 2082 c-2 -4 -1 -14 5 -22 7 -12 9 -10 9 8 0 23 -5 28 -14 14z"/>
<path d="M2692 2060 c0 -14 2 -19 5 -12 2 6 2 18 0 25 -3 6 -5 1 -5 -13z"/>
<path d="M3390 2070 c0 -5 5 -10 10 -10 6 0 10 5 10 10 0 6 -4 10 -10 10 -5 0
-10 -4 -10 -10z"/>
<path d="M2961 2060 c0 -8 4 -22 9 -30 12 -18 12 -2 0 25 -6 13 -9 15 -9 5z"/>
<path d="M2200 2046 c0 -8 5 -18 10 -21 6 -3 10 1 10 9 0 8 -4 18 -10 21 -5 3
-10 -1 -10 -9z"/>
<path d="M3175 2050 c-3 -5 -1 -10 4 -10 6 0 11 5 11 10 0 6 -2 10 -4 10 -3 0
-8 -4 -11 -10z"/>
<path d="M4505 2039 c10 -36 27 -69 37 -69 11 0 10 14 -1 26 -5 5 -11 20 -13
33 -1 14 -9 26 -17 29 -10 3 -11 -2 -6 -19z"/>
<path d="M950 2041 c0 -5 5 -13 10 -16 6 -3 10 -2 10 4 0 5 -4 13 -10 16 -5 3
-10 2 -10 -4z"/>
<path d="M1046 2031 c-4 -5 -2 -12 4 -16 5 -3 10 -17 10 -31 0 -13 4 -24 9
-24 6 0 5 15 -1 38 -12 43 -14 47 -22 33z"/>
<path d="M4457 2007 c-15 -27 -16 -38 -6 -67 12 -37 29 -62 29 -44 0 6 9 21
20 34 16 19 18 26 7 38 -10 13 -12 12 -15 -11 -4 -31 -27 -36 -35 -8 -3 12 3
27 14 37 20 18 25 39 11 48 -4 3 -16 -10 -25 -27z"/>
<path d="M2700 2016 c0 -8 5 -18 10 -21 6 -3 10 1 10 9 0 8 -4 18 -10 21 -5 3
-10 -1 -10 -9z"/>
<path d="M2893 1995 c0 -22 2 -30 4 -17 2 12 2 30 0 40 -3 9 -5 -1 -4 -23z"/>
<path d="M3157 2024 c-8 -9 2 -55 15 -69 6 -6 7 5 2 30 -8 46 -8 47 -17 39z"/>
<path d="M2930 1999 c0 -11 4 -18 10 -14 5 3 7 12 3 20 -7 21 -13 19 -13 -6z"/>
<path d="M970 1990 c0 -11 4 -20 9 -20 5 0 7 9 4 20 -3 11 -7 20 -9 20 -2 0
-4 -9 -4 -20z"/>
<path d="M2310 1996 c0 -9 5 -16 10 -16 6 0 10 4 10 9 0 6 -4 13 -10 16 -5 3
-10 -1 -10 -9z"/>
<path d="M1010 1987 c0 -15 29 -77 36 -77 4 0 -1 31 -13 73 -5 20 -23 23 -23
4z"/>
<path d="M2360 1970 c0 -11 4 -20 9 -20 5 0 7 9 4 20 -3 11 -7 20 -9 20 -2 0
-4 -9 -4 -20z"/>
<path d="M1121 1955 c-1 -19 20 -100 36 -142 15 -41 33 -58 33 -30 -1 15 -69
186 -69 172z"/>
<path d="M3084 1944 c3 -9 6 -22 6 -30 0 -9 4 -13 9 -10 11 7 2 56 -11 56 -6
0 -7 -7 -4 -16z"/>
<path d="M3124 1949 c-3 -6 -1 -16 5 -22 8 -8 11 -5 11 11 0 24 -5 28 -16 11z"/>
<path d="M3210 1951 c0 -6 5 -13 10 -16 6 -3 10 1 10 9 0 9 -4 16 -10 16 -5 0
-10 -4 -10 -9z"/>
<path d="M4392 1930 c-23 -29 -23 -29 -4 -65 l20 -35 17 26 c14 21 15 31 5 54
-7 16 -9 34 -5 39 14 23 -11 8 -33 -19z m28 -41 c0 -16 -4 -29 -10 -29 -5 0
-10 16 -10 36 0 21 4 33 10 29 6 -3 10 -19 10 -36z"/>
<path d="M2550 1936 c0 -8 5 -18 10 -21 6 -3 10 3 10 14 0 12 -4 21 -10 21 -5
0 -10 -6 -10 -14z"/>
<path d="M1083 1899 c6 -47 37 -90 37 -52 0 24 -27 93 -36 93 -4 0 -4 -19 -1
-41z"/>
<path d="M3047 1933 c-4 -3 -7 -13 -7 -22 1 -13 3 -13 11 2 11 19 8 33 -4 20z"/>
<path d="M2601 1914 c0 -11 3 -14 6 -6 3 7 2 16 -1 19 -3 4 -6 -2 -5 -13z"/>
<path d="M2660 1890 c0 -5 5 -10 11 -10 5 0 7 5 4 10 -3 6 -8 10 -11 10 -2 0
-4 -4 -4 -10z"/>
<path d="M1202 1818 c23 -81 34 -108 47 -108 5 0 2 21 -6 48 -8 26 -20 65 -27
86 -6 22 -17 41 -23 43 -8 3 -5 -20 9 -69z"/>
<path d="M4327 1879 c-22 -13 -23 -44 -1 -35 9 3 20 6 25 6 11 0 12 27 1 34
-4 2 -15 0 -25 -5z"/>
<path d="M1250 1826 c0 -8 5 -18 10 -21 6 -3 10 1 10 9 0 8 -4 18 -10 21 -5 3
-10 -1 -10 -9z"/>
<path d="M4257 1817 c-8 -13 -17 -37 -19 -53 l-4 -29 -13 30 c-19 42 -27 13
-11 -36 14 -42 30 -52 30 -19 0 12 7 20 16 20 13 0 15 7 9 39 -6 34 -4 39 15
44 12 3 19 10 15 16 -10 17 -21 13 -38 -12z"/>
<path d="M4360 1824 c0 -8 5 -12 10 -9 6 3 10 10 10 16 0 5 -4 9 -10 9 -5 0
-10 -7 -10 -16z"/>
<path d="M4298 1794 c-5 -4 -8 -19 -8 -33 0 -18 3 -22 11 -14 6 6 9 21 7 33
-1 12 -6 18 -10 14z"/>
<path d="M1266 1781 c-7 -11 11 -78 26 -95 16 -19 19 3 7 46 -14 50 -24 64
-33 49z"/>
<path d="M1310 1764 c0 -17 4 -34 9 -39 5 -6 13 -25 18 -44 5 -19 15 -37 22
-39 16 -5 14 2 -16 86 -24 64 -33 74 -33 36z"/>
<path d="M4330 1780 c0 -5 5 -10 10 -10 6 0 10 5 10 10 0 6 -4 10 -10 10 -5 0
-10 -4 -10 -10z"/>
<path d="M4160 1740 c0 -5 5 -10 10 -10 6 0 10 -13 10 -30 0 -34 -17 -41 -22
-8 -4 27 -28 36 -28 10 0 -30 31 -51 58 -41 19 7 21 12 12 29 -6 11 -8 20 -5
20 3 0 1 9 -5 20 -11 21 -30 27 -30 10z"/>
<path d="M1370 1716 c0 -13 8 -30 17 -37 15 -13 16 -11 10 11 -4 14 -7 31 -7
38 0 6 -4 12 -10 12 -5 0 -10 -11 -10 -24z"/>
<path d="M4096 1698 c-4 -9 -2 -26 4 -37 6 -12 7 -27 3 -34 -5 -8 -9 -2 -13
17 -3 16 -11 31 -18 34 -9 3 -11 -6 -6 -37 4 -28 3 -41 -5 -41 -6 0 -11 9 -11
19 0 26 -16 35 -24 15 -8 -22 11 -54 32 -54 37 0 72 24 72 51 0 14 -4 29 -9
35 -5 5 -11 18 -13 29 -4 18 -6 18 -12 3z"/>
<path d="M1430 1687 c0 -4 6 -23 14 -41 8 -18 12 -45 9 -60 -4 -19 -1 -26 11
-26 19 0 20 18 4 57 -6 15 -12 30 -12 33 -3 11 -25 44 -26 37z"/>
<path d="M1390 1650 c0 -5 5 -10 10 -10 6 0 10 5 10 10 0 6 -4 10 -10 10 -5 0
-10 -4 -10 -10z"/>
<path d="M2765 1643 c-11 -3 -35 -21 -54 -41 -29 -32 -32 -42 -28 -75 3 -22
16 -50 29 -64 20 -22 29 -24 77 -21 36 3 56 10 63 21 5 10 16 17 23 17 21 0
20 84 -2 121 -20 34 -66 52 -108 42z"/>
<path d="M1495 1603 c0 -38 23 -79 37 -65 7 7 -22 102 -32 102 -3 0 -5 -17 -5
-37z"/>
<path d="M3965 1615 c-16 -14 -24 -25 -17 -25 7 0 12 -9 10 -22 -2 -13 2 -24
7 -25 6 -1 9 11 7 28 -1 20 2 29 13 29 8 0 15 -9 15 -19 0 -11 5 -23 10 -26
12 -7 13 9 4 54 -8 37 -10 37 -49 6z"/>
<path d="M1540 1606 c0 -9 4 -24 9 -34 6 -9 13 -34 16 -54 4 -25 11 -38 22
-38 10 0 13 6 9 16 -4 9 -11 36 -17 60 -12 46 -39 81 -39 50z"/>
<path d="M1415 1600 c3 -5 8 -10 11 -10 2 0 4 5 4 10 0 6 -5 10 -11 10 -5 0
-7 -4 -4 -10z"/>
<path d="M1590 1581 c0 -11 4 -22 9 -25 5 -4 15 -29 22 -56 7 -28 17 -50 21
-50 10 0 5 36 -14 99 -14 47 -38 67 -38 32z"/>
<path d="M3917 1593 c-15 -14 6 -93 25 -93 12 0 19 18 8 25 -5 3 -10 16 -10
28 0 26 -14 50 -23 40z"/>
<path d="M3866 1555 c-3 -8 -11 -14 -18 -13 -12 3 -12 -3 -1 -44 3 -10 0 -18
-6 -18 -6 0 -11 11 -11 25 0 16 -6 25 -15 25 -9 0 -15 -9 -15 -25 0 -14 4 -25
10 -25 5 0 7 -7 3 -16 -4 -12 0 -14 23 -8 42 10 44 12 32 39 -6 14 -9 28 -5
31 10 10 27 -6 27 -27 0 -10 5 -19 10 -19 6 0 10 9 10 19 0 11 -4 23 -10 26
-5 3 -10 15 -10 26 0 23 -15 25 -24 4z"/>
<path d="M1666 1498 c4 -24 13 -50 20 -58 12 -12 14 -11 14 12 0 15 -4 30 -10
33 -5 3 -10 17 -10 31 0 13 -5 24 -10 24 -6 0 -8 -16 -4 -42z"/>
<path d="M1716 1478 c9 -53 12 -58 36 -58 13 0 18 3 12 8 -11 7 -27 46 -29 66
0 5 -6 11 -12 13 -9 3 -11 -5 -7 -29z"/>
<path d="M1750 1496 c0 -9 4 -16 10 -16 5 0 13 -18 16 -40 4 -24 12 -40 20
-40 8 0 14 7 14 15 0 8 -4 15 -8 15 -5 0 -13 17 -18 37 -9 37 -34 58 -34 29z"/>
<path d="M3760 1499 c0 -6 -8 -9 -18 -7 -33 9 -55 -16 -47 -53 5 -22 10 -28
16 -18 4 8 3 19 -3 26 -8 10 -6 13 6 13 9 0 16 -8 16 -19 0 -10 7 -21 15 -25
18 -7 21 24 3 42 -6 6 -9 15 -5 18 7 8 37 -20 37 -35 0 -6 5 -11 10 -11 13 0
13 6 -2 47 -12 32 -28 45 -28 22z"/>
<path d="M1810 1466 c0 -8 5 -18 10 -21 6 -3 10 3 10 14 0 12 -4 21 -10 21 -5
0 -10 -6 -10 -14z"/>
<path d="M1860 1453 c0 -20 32 -103 40 -103 5 0 10 8 13 18 3 13 6 11 15 -10
14 -34 38 -38 27 -5 -4 12 -9 34 -12 50 -6 31 -23 37 -23 7 0 -29 -28 -14 -32
18 -3 23 -28 46 -28 25z"/>
<path d="M3639 1438 c-1 -17 -2 -19 -6 -5 -6 22 -20 22 -59 -2 -17 -10 -51
-22 -75 -26 -48 -8 -64 -22 -47 -42 6 -8 8 -16 5 -20 -10 -9 13 -44 24 -38 5
4 7 11 3 16 -3 6 4 7 19 3 22 -5 25 -3 20 15 -4 17 -10 20 -30 14 -18 -4 -24
-2 -22 6 3 7 7 11 10 9 3 -2 13 3 22 10 21 18 37 7 37 -23 0 -13 5 -27 10 -30
6 -4 10 10 10 34 0 23 5 41 10 41 6 0 10 -13 10 -30 0 -16 5 -30 10 -30 14 0
13 43 -2 58 -15 15 -4 26 17 19 8 -4 15 -18 15 -32 0 -14 4 -25 9 -25 4 0 7
11 6 25 -4 28 7 32 29 10 11 -11 21 -12 38 -6 23 10 23 10 -4 10 -24 1 -28 5
-28 31 0 36 -29 43 -31 8z"/>
<path d="M1830 1413 c0 -19 17 -43 31 -43 11 0 -2 38 -17 51 -11 9 -14 8 -14
-8z"/>
<path d="M1970 1403 c0 -28 23 -83 35 -83 12 0 11 7 -2 45 -8 25 -19 45 -24
45 -5 0 -9 -3 -9 -7z"/>
<path d="M2065 1368 c4 -18 12 -39 17 -45 8 -10 5 -13 -11 -13 -17 0 -21 6
-21 34 0 19 -5 38 -11 41 -18 12 -20 -1 -8 -49 10 -39 15 -46 36 -46 13 0 31
7 39 15 22 21 36 19 32 -7 -2 -11 3 -23 10 -25 17 -6 15 27 -4 65 -18 38 -37
42 -28 7 10 -42 -12 -28 -25 15 -14 49 -36 55 -26 8z"/>
<path d="M3360 1361 c0 -5 -17 -12 -38 -16 -35 -6 -38 -9 -34 -34 3 -25 1 -28
-27 -28 -21 0 -33 6 -37 19 -8 28 -25 11 -18 -19 5 -19 3 -24 -7 -21 -8 3 -15
14 -17 26 -2 12 -7 22 -12 22 -9 0 4 -67 15 -78 4 -4 12 1 19 11 9 11 27 17
53 17 42 0 63 14 63 42 0 10 5 18 10 18 6 0 10 -11 10 -25 0 -14 5 -25 11 -25
7 0 10 12 7 30 -3 20 0 30 9 30 8 0 13 -12 13 -30 0 -16 5 -30 10 -30 13 0 13
29 -1 69 -10 29 -29 43 -29 22z"/>
<path d="M3406 1354 c-3 -8 2 -26 12 -39 20 -28 32 -32 32 -10 0 8 -4 15 -10
15 -5 0 -10 11 -10 25 0 28 -15 34 -24 9z"/>
<path d="M2160 1356 c0 -3 5 -17 11 -33 7 -15 12 -37 13 -47 1 -11 7 -21 15
-24 10 -3 11 3 6 29 -11 52 -23 79 -35 79 -5 0 -10 -2 -10 -4z"/>
<path d="M2210 1336 c0 -8 5 -18 10 -21 6 -3 10 -17 10 -31 0 -13 4 -24 8 -24
13 0 -2 83 -15 88 -7 2 -13 -3 -13 -12z"/>
<path d="M2260 1328 c0 -28 22 -88 31 -88 11 0 7 53 -5 83 -9 20 -26 23 -26 5z"/>
<path d="M3242 1318 c6 -18 28 -21 28 -4 0 9 -7 16 -16 16 -9 0 -14 -5 -12
-12z"/>
<path d="M2314 1294 c8 -30 22 -51 31 -43 8 9 -11 63 -24 67 -11 4 -12 -2 -7
-24z"/>
<path d="M2360 1301 c5 -11 10 -31 10 -45 0 -28 14 -41 33 -29 18 12 61 11 69
-1 14 -21 17 1 6 37 -14 45 -28 48 -28 7 0 -16 -4 -30 -10 -30 -5 0 -10 14
-10 30 0 19 -5 30 -14 30 -9 0 -12 -8 -8 -26 3 -19 1 -25 -7 -20 -6 4 -11 15
-11 25 0 18 -18 41 -32 41 -5 0 -4 -9 2 -19z"/>
<path d="M3110 1313 c0 -6 3 -13 7 -17 4 -3 8 -17 10 -29 5 -35 12 -49 22 -43
12 8 -12 89 -27 94 -7 2 -12 0 -12 -5z"/>
<path d="M3065 1300 c-3 -5 4 -19 15 -30 14 -14 19 -28 15 -41 -4 -10 -2 -19
4 -19 19 0 22 19 8 47 -8 15 -12 34 -10 41 5 14 -23 17 -32 2z"/>
<path d="M2500 1278 c1 -26 26 -65 37 -55 4 4 1 13 -5 19 -7 7 -12 20 -12 29
0 10 -4 21 -10 24 -6 3 -10 -4 -10 -17z"/>
<path d="M2900 1291 c0 -6 -18 -11 -40 -11 -29 0 -40 -4 -40 -15 0 -8 6 -12
13 -9 8 3 20 -3 28 -12 12 -15 12 -16 -9 -10 -16 5 -22 3 -22 -7 0 -10 11 -15
35 -15 32 0 34 2 29 25 -5 17 -1 28 11 37 13 9 15 15 7 20 -7 4 -12 2 -12 -3z"/>
<path d="M2943 1286 c4 -10 7 -22 7 -27 0 -5 5 -9 11 -9 15 0 7 43 -10 48 -10
3 -12 0 -8 -12z"/>
<path d="M3030 1280 c0 -25 29 -72 40 -65 11 7 -13 78 -28 83 -7 2 -12 -6 -12
-18z"/>
<path d="M2530 1285 c0 -2 10 -14 23 -26 12 -12 17 -19 10 -15 -13 7 -6 -31 8
-40 8 -5 14 18 10 39 -1 5 4 7 11 5 7 -3 14 -14 16 -26 2 -12 8 -22 13 -22 15
0 10 38 -7 66 -15 23 -17 23 -30 7 -12 -17 -13 -17 -19 0 -6 15 -35 25 -35 12z"/>
<path d="M2637 1284 c-3 -3 -1 -20 5 -37 5 -18 12 -38 14 -46 4 -11 7 -12 17
-2 9 9 9 16 -1 32 -7 11 -10 24 -7 28 6 10 -19 33 -28 25z"/>
<path d="M2980 1276 c0 -8 5 -18 10 -21 19 -12 10 -26 -11 -20 -15 5 -20 3
-17 -6 6 -18 47 -24 62 -9 8 9 8 14 -1 17 -7 3 -13 16 -13 29 0 15 -6 24 -15
24 -8 0 -15 -6 -15 -14z"/>
<path d="M2692 1246 c3 -40 13 -47 21 -16 7 28 27 25 27 -5 0 -14 5 -25 10
-25 14 0 12 33 -2 52 -7 9 -23 19 -36 23 -20 6 -22 3 -20 -29z"/>
<path d="M2782 1236 c2 -22 9 -41 17 -44 10 -3 12 3 6 29 -11 51 -27 61 -23
15z"/>
<path d="M2910 1230 c0 -20 5 -30 15 -30 9 0 15 9 15 24 0 13 -7 26 -15 30
-11 4 -15 -2 -15 -24z"/>
</g>
</svg>
